<?xml version="1.0" encoding="UTF-8"?>
<svg width="500px" height="500px" viewBox="0 0 500 500" version="1.1" xmlns="http://www.w3.org/2000/svg" xmlns:xlink="http://www.w3.org/1999/xlink">
    <!-- Generator: Sketch 51.1 (57501) - http://www.bohemiancoding.com/sketch -->
    <title>Sprites</title>
    <desc>Created with Sketch.</desc>
    <defs>
        <rect id="path-1" x="0" y="0" width="32" height="32" rx="2"></rect>
        <filter x="-10.9%" y="-7.8%" width="121.9%" height="121.9%" filterUnits="objectBoundingBox" id="filter-2">
            <feOffset dx="0" dy="1" in="SourceAlpha" result="shadowOffsetOuter1"></feOffset>
            <feGaussianBlur stdDeviation="1" in="shadowOffsetOuter1" result="shadowBlurOuter1"></feGaussianBlur>
            <feColorMatrix values="0 0 0 0 0   0 0 0 0 0   0 0 0 0 0  0 0 0 0.206748188 0" type="matrix" in="shadowBlurOuter1"></feColorMatrix>
        </filter>
    </defs>
    <g id="Sprites" stroke="none" stroke-width="1" fill="none" fill-rule="evenodd">
        <path d="M7.5,29.25 C8.11979477,29.25 8.64973738,29.4700499 9.08984375,29.9101562 C9.52995012,30.3502626 9.75,30.8802052 9.75,31.5 C9.75,32.1197948 9.52995012,32.6497374 9.08984375,33.0898438 C8.64973738,33.5299501 8.11979477,33.75 7.5,33.75 C6.88020523,33.75 6.35026262,33.5299501 5.91015625,33.0898438 C5.47004988,32.6497374 5.25,32.1197948 5.25,31.5 C5.25,30.8802052 5.47004988,30.3502626 5.91015625,29.9101562 C6.35026262,29.4700499 6.88020523,29.25 7.5,29.25 Z M13,26 C13.5520861,26 14.0234355,26.1953105 14.4140625,26.5859375 C14.8046895,26.9765645 15,27.4479139 15,28 L15,35 C15,35.5520861 14.8046895,36.0234355 14.4140625,36.4140625 C14.0234355,36.8046895 13.5520861,37 13,37 L2,37 C1.44791391,37 0.976564453,36.8046895 0.5859375,36.4140625 C0.195310547,36.0234355 0,35.5520861 0,35 L0,28 C0,27.4479139 0.195310547,26.9765645 0.5859375,26.5859375 C0.976564453,26.1953105 1.44791391,26 2,26 L3.75,26 L4.1484375,24.9375 C4.24739633,24.6822904 4.4283841,24.4622405 4.69140625,24.2773438 C4.9544284,24.092447 5.22395695,24 5.5,24 L9.5,24 C9.77604305,24 10.0455716,24.092447 10.3085938,24.2773438 C10.5716159,24.4622405 10.7526037,24.6822904 10.8515625,24.9375 L11.25,26 L13,26 Z M7.5,35 C8.46354648,35 9.28775699,34.6575555 9.97265625,33.9726562 C10.6575555,33.287757 11,32.4635465 11,31.5 C11,30.5364535 10.6575555,29.712243 9.97265625,29.0273438 C9.28775699,28.3424445 8.46354648,28 7.5,28 C6.53645352,28 5.71224301,28.3424445 5.02734375,29.0273438 C4.34244449,29.712243 4,30.5364535 4,31.5 C4,32.4635465 4.34244449,33.287757 5.02734375,33.9726562 C5.71224301,34.6575555 6.53645352,35 7.5,35 Z" id="" fill="#FFFFFF" opacity="0.900000036"></path>
        <path d="M10.8125,55.2421875 L0.4375,61.0078125 C0.317707734,61.0755212 0.21484418,61.0833336 0.12890625,61.03125 C0.0429683203,60.9791664 0,60.8854173 0,60.75 L0,49.25 C0,49.1145827 0.0429683203,49.0208336 0.12890625,48.96875 C0.21484418,48.9166664 0.317707734,48.9244788 0.4375,48.9921875 L10.8125,54.7578125 C10.9322923,54.8255212 10.9921875,54.9062495 10.9921875,55 C10.9921875,55.0937505 10.9322923,55.1744788 10.8125,55.2421875 Z" id="" fill="#FFFFFF" opacity="0.900000036"></path>
        <path d="M11,7.75 L11,11.5 C11,11.6354173 10.9505213,11.7526037 10.8515625,11.8515625 C10.7526037,11.9505213 10.6354173,12 10.5,12 L7.5,12 L7.5,9 L5.5,9 L5.5,12 L2.5,12 C2.36458266,12 2.24739633,11.9505213 2.1484375,11.8515625 C2.04947867,11.7526037 2,11.6354173 2,11.5 L2,7.75 C2,7.74479164 2.00130207,7.73697922 2.00390625,7.7265625 C2.00651043,7.71614578 2.0078125,7.70833336 2.0078125,7.703125 L6.5,4 L10.9921875,7.703125 C10.9973959,7.71354172 11,7.72916656 11,7.75 Z M12.7421875,7.2109375 L12.2578125,7.7890625 C12.2161456,7.83593773 12.1614587,7.86458328 12.09375,7.875 L12.0703125,7.875 C12.0026038,7.875 11.9479169,7.85677102 11.90625,7.8203125 L6.5,3.3125 L1.09375,7.8203125 C1.03124969,7.86197937 0.968750312,7.88020836 0.90625,7.875 C0.838541328,7.86458328 0.783854375,7.83593773 0.7421875,7.7890625 L0.2578125,7.2109375 C0.216145625,7.15885391 0.197916641,7.0976566 0.203125,7.02734375 C0.208333359,6.9570309 0.236978906,6.90104187 0.2890625,6.859375 L5.90625,2.1796875 C6.0729175,2.04427016 6.27083219,1.9765625 6.5,1.9765625 C6.72916781,1.9765625 6.9270825,2.04427016 7.09375,2.1796875 L9,3.7734375 L9,2.25 C9,2.17708297 9.02343727,2.11718773 9.0703125,2.0703125 C9.11718773,2.02343727 9.17708297,2 9.25,2 L10.75,2 C10.822917,2 10.8828123,2.02343727 10.9296875,2.0703125 C10.9765627,2.11718773 11,2.17708297 11,2.25 L11,5.4375 L12.7109375,6.859375 C12.7630211,6.90104187 12.7916666,6.9570309 12.796875,7.02734375 C12.8020834,7.0976566 12.7838544,7.15885391 12.7421875,7.2109375 Z" id="" fill="#FFFFFF"></path>
        <path d="M34,7.75 L34,11.5 C34,11.6354173 33.9505213,11.7526037 33.8515625,11.8515625 C33.7526037,11.9505213 33.6354173,12 33.5,12 L30.5,12 L30.5,9 L28.5,9 L28.5,12 L25.5,12 C25.3645827,12 25.2473963,11.9505213 25.1484375,11.8515625 C25.0494787,11.7526037 25,11.6354173 25,11.5 L25,7.75 C25,7.74479164 25.0013021,7.73697922 25.0039062,7.7265625 C25.0065104,7.71614578 25.0078125,7.70833336 25.0078125,7.703125 L29.5,4 L33.9921875,7.703125 C33.9973959,7.71354172 34,7.72916656 34,7.75 Z M35.7421875,7.2109375 L35.2578125,7.7890625 C35.2161456,7.83593773 35.1614587,7.86458328 35.09375,7.875 L35.0703125,7.875 C35.0026038,7.875 34.9479169,7.85677102 34.90625,7.8203125 L29.5,3.3125 L24.09375,7.8203125 C24.0312497,7.86197937 23.9687503,7.88020836 23.90625,7.875 C23.8385413,7.86458328 23.7838544,7.83593773 23.7421875,7.7890625 L23.2578125,7.2109375 C23.2161456,7.15885391 23.1979166,7.0976566 23.203125,7.02734375 C23.2083334,6.9570309 23.2369789,6.90104187 23.2890625,6.859375 L28.90625,2.1796875 C29.0729175,2.04427016 29.2708322,1.9765625 29.5,1.9765625 C29.7291678,1.9765625 29.9270825,2.04427016 30.09375,2.1796875 L32,3.7734375 L32,2.25 C32,2.17708297 32.0234373,2.11718773 32.0703125,2.0703125 C32.1171877,2.02343727 32.177083,2 32.25,2 L33.75,2 C33.822917,2 33.8828123,2.02343727 33.9296875,2.0703125 C33.9765627,2.11718773 34,2.17708297 34,2.25 L34,5.4375 L35.7109375,6.859375 C35.7630211,6.90104187 35.7916666,6.9570309 35.796875,7.02734375 C35.8020834,7.0976566 35.7838544,7.15885391 35.7421875,7.2109375 Z" id="-copy" fill="#EC1C23"></path>
        <rect id="Rectangle-18-Copy-13" fill="#777777" x="0" y="68" width="24" height="24"></rect>
        <rect id="Rectangle-18-Copy-14" fill="#999999" x="0" y="98" width="24" height="24"></rect>
        <path d="M15,79.5 C15,78.5364535 14.6575555,77.712243 13.9726562,77.0273438 C13.287757,76.3424445 12.4635465,76 11.5,76 C10.5364535,76 9.71224301,76.3424445 9.02734375,77.0273438 C8.34244449,77.712243 8,78.5364535 8,79.5 C8,80.4635465 8.34244449,81.287757 9.02734375,81.9726562 C9.71224301,82.6575555 10.5364535,83 11.5,83 C12.4635465,83 13.287757,82.6575555 13.9726562,81.9726562 C14.6575555,81.287757 15,80.4635465 15,79.5 Z M19,86 C19,86.2708347 18.9010427,86.5052073 18.703125,86.703125 C18.5052073,86.9010427 18.2708347,87 18,87 C17.7187486,87 17.4843759,86.9010427 17.296875,86.703125 L14.6171875,84.03125 C13.6848912,84.6770866 12.6458391,85 11.5,85 C10.7552046,85 10.0429721,84.8554702 9.36328125,84.5664062 C8.68359035,84.2773423 8.09765871,83.8867212 7.60546875,83.3945312 C7.11327879,82.9023413 6.7226577,82.3164096 6.43359375,81.6367188 C6.1445298,80.9570279 6,80.2447954 6,79.5 C6,78.7552046 6.1445298,78.0429721 6.43359375,77.3632812 C6.7226577,76.6835904 7.11327879,76.0976587 7.60546875,75.6054688 C8.09765871,75.1132788 8.68359035,74.7226577 9.36328125,74.4335938 C10.0429721,74.1445298 10.7552046,74 11.5,74 C12.2447954,74 12.9570279,74.1445298 13.6367188,74.4335938 C14.3164096,74.7226577 14.9023413,75.1132788 15.3945312,75.6054688 C15.8867212,76.0976587 16.2773423,76.6835904 16.5664062,77.3632812 C16.8554702,78.0429721 17,78.7552046 17,79.5 C17,80.6458391 16.6770866,81.6848912 16.03125,82.6171875 L18.7109375,85.296875 C18.9036468,85.4895843 19,85.723957 19,86 Z" id="" fill="#FFFFFF"></path>
        <path d="M15,109.5 C15,108.536454 14.6575555,107.712243 13.9726562,107.027344 C13.287757,106.342444 12.4635465,106 11.5,106 C10.5364535,106 9.71224301,106.342444 9.02734375,107.027344 C8.34244449,107.712243 8,108.536454 8,109.5 C8,110.463546 8.34244449,111.287757 9.02734375,111.972656 C9.71224301,112.657556 10.5364535,113 11.5,113 C12.4635465,113 13.287757,112.657556 13.9726562,111.972656 C14.6575555,111.287757 15,110.463546 15,109.5 Z M19,116 C19,116.270835 18.9010427,116.505207 18.703125,116.703125 C18.5052073,116.901043 18.2708347,117 18,117 C17.7187486,117 17.4843759,116.901043 17.296875,116.703125 L14.6171875,114.03125 C13.6848912,114.677087 12.6458391,115 11.5,115 C10.7552046,115 10.0429721,114.85547 9.36328125,114.566406 C8.68359035,114.277342 8.09765871,113.886721 7.60546875,113.394531 C7.11327879,112.902341 6.7226577,112.31641 6.43359375,111.636719 C6.1445298,110.957028 6,110.244795 6,109.5 C6,108.755205 6.1445298,108.042972 6.43359375,107.363281 C6.7226577,106.68359 7.11327879,106.097659 7.60546875,105.605469 C8.09765871,105.113279 8.68359035,104.722658 9.36328125,104.433594 C10.0429721,104.14453 10.7552046,104 11.5,104 C12.2447954,104 12.9570279,104.14453 13.6367188,104.433594 C14.3164096,104.722658 14.9023413,105.113279 15.3945312,105.605469 C15.8867212,106.097659 16.2773423,106.68359 16.5664062,107.363281 C16.8554702,108.042972 17,108.755205 17,109.5 C17,110.645839 16.6770866,111.684891 16.03125,112.617188 L18.7109375,115.296875 C18.9036468,115.489584 19,115.723957 19,116 Z" id="-copy" fill="#FFFFFF"></path>
        <path d="M5.28348214,153.573661 C5.28348214,153.928573 5.15792536,154.231584 4.90680804,154.482701 C4.65569071,154.733818 4.35268035,154.859375 3.99776786,154.859375 C3.64955183,154.859375 3.34821556,154.732144 3.09375,154.477679 C2.83928444,154.223213 2.71205357,153.921877 2.71205357,153.573661 C2.71205357,153.218748 2.83761035,152.915738 3.08872768,152.664621 C3.33984501,152.413503 3.64285537,152.287946 3.99776786,152.287946 C4.35268035,152.287946 4.65569071,152.413503 4.90680804,152.664621 C5.15792536,152.915738 5.28348214,153.218748 5.28348214,153.573661 Z M10.2857143,155.642857 C10.2857143,155.99777 10.1601575,156.30078 9.90904018,156.551897 C9.65792285,156.803015 9.35491249,156.928571 9,156.928571 C8.64508751,156.928571 8.34207715,156.803015 8.09095982,156.551897 C7.83984249,156.30078 7.71428571,155.99777 7.71428571,155.642857 C7.71428571,155.287945 7.83984249,154.984934 8.09095982,154.733817 C8.34207715,154.4827 8.64508751,154.357143 9,154.357143 C9.35491249,154.357143 9.65792285,154.4827 9.90904018,154.733817 C10.1601575,154.984934 10.2857143,155.287945 10.2857143,155.642857 Z M3.21428571,148.571429 C3.21428571,148.926341 3.08872893,149.229351 2.83761161,149.480469 C2.58649428,149.731586 2.28348392,149.857143 1.92857143,149.857143 C1.57365894,149.857143 1.27064858,149.731586 1.01953125,149.480469 C0.768413923,149.229351 0.642857143,148.926341 0.642857143,148.571429 C0.642857143,148.216516 0.768413923,147.913506 1.01953125,147.662388 C1.27064858,147.411271 1.57365894,147.285714 1.92857143,147.285714 C2.28348392,147.285714 2.58649428,147.411271 2.83761161,147.662388 C3.08872893,147.913506 3.21428571,148.216516 3.21428571,148.571429 Z M15.2879464,153.573661 C15.2879464,153.921877 15.1607156,154.223213 14.90625,154.477679 C14.6517844,154.732144 14.3504482,154.859375 14.0022321,154.859375 C13.6473197,154.859375 13.3443093,154.733818 13.093192,154.482701 C12.8420746,154.231584 12.7165179,153.928573 12.7165179,153.573661 C12.7165179,153.218748 12.8420746,152.915738 13.093192,152.664621 C13.3443093,152.413503 13.6473197,152.287946 14.0022321,152.287946 C14.3571446,152.287946 14.660155,152.413503 14.9112723,152.664621 C15.1623896,152.915738 15.2879464,153.218748 15.2879464,153.573661 Z M5.60491071,143.569196 C5.60491071,144.011163 5.44754622,144.389507 5.1328125,144.704241 C4.81807878,145.018975 4.43973435,145.176339 3.99776786,145.176339 C3.55580136,145.176339 3.17745693,145.018975 2.86272321,144.704241 C2.5479895,144.389507 2.390625,144.011163 2.390625,143.569196 C2.390625,143.12723 2.5479895,142.748886 2.86272321,142.434152 C3.17745693,142.119418 3.55580136,141.962054 3.99776786,141.962054 C4.43973435,141.962054 4.81807878,142.119418 5.1328125,142.434152 C5.44754622,142.748886 5.60491071,143.12723 5.60491071,143.569196 Z M17.3571429,148.571429 C17.3571429,148.926341 17.2315861,149.229351 16.9804688,149.480469 C16.7293514,149.731586 16.4263411,149.857143 16.0714286,149.857143 C15.7165161,149.857143 15.4135057,149.731586 15.1623884,149.480469 C14.9112711,149.229351 14.7857143,148.926341 14.7857143,148.571429 C14.7857143,148.216516 14.9112711,147.913506 15.1623884,147.662388 C15.4135057,147.411271 15.7165161,147.285714 16.0714286,147.285714 C16.4263411,147.285714 16.7293514,147.411271 16.9804688,147.662388 C17.2315861,147.913506 17.3571429,148.216516 17.3571429,148.571429 Z M10.9285714,141.5 C10.9285714,142.035717 10.7410733,142.49107 10.3660714,142.866071 C9.99106955,143.241073 9.53571696,143.428571 9,143.428571 C8.46428304,143.428571 8.00893045,143.241073 7.63392857,142.866071 C7.2589267,142.49107 7.07142857,142.035717 7.07142857,141.5 C7.07142857,140.964283 7.2589267,140.50893 7.63392857,140.133929 C8.00893045,139.758927 8.46428304,139.571429 9,139.571429 C9.53571696,139.571429 9.99106955,139.758927 10.3660714,140.133929 C10.7410733,140.50893 10.9285714,140.964283 10.9285714,141.5 Z M16.2522321,143.569196 C16.2522321,144.191967 16.0312522,144.722654 15.5892857,145.161272 C15.1473192,145.599891 14.6183067,145.819196 14.0022321,145.819196 C13.3794612,145.819196 12.8487745,145.599891 12.4101562,145.161272 C11.971538,144.722654 11.7522321,144.191967 11.7522321,143.569196 C11.7522321,142.953122 11.971538,142.424109 12.4101562,141.982143 C12.8487745,141.540176 13.3794612,141.319196 14.0022321,141.319196 C14.6183067,141.319196 15.1473192,141.540176 15.5892857,141.982143 C16.0312522,142.424109 16.2522321,142.953122 16.2522321,143.569196 Z" id="" fill="#EC1C23"></path>
        <g id="Group" transform="translate(0.000000, 206.000000)">
            <rect id="Rectangle-18-Copy-9" fill="#999999" x="0" y="0" width="24" height="24"></rect>
            <path d="M15.4921875,5.09375 L15.4921875,7.15625 L14.265625,7.15625 C13.8177061,7.15625 13.5156258,7.24999906 13.359375,7.4375 C13.2031242,7.62500094 13.125,7.90624812 13.125,8.28125 L13.125,9.7578125 L15.4140625,9.7578125 L15.109375,12.0703125 L13.125,12.0703125 L13.125,18 L10.734375,18 L10.734375,12.0703125 L8.7421875,12.0703125 L8.7421875,9.7578125 L10.734375,9.7578125 L10.734375,8.0546875 C10.734375,7.08593266 11.0052056,6.33463809 11.546875,5.80078125 C12.0885444,5.26692441 12.8098913,5 13.7109375,5 C14.4765663,5 15.0703104,5.03124969 15.4921875,5.09375 Z" id="-copy" fill="#FFFFFF"></path>
            <rect id="Rectangle-18-Copy-8" fill="#999999" x="32" y="0" width="24" height="24"></rect>
            <path d="M46.2265625,12.1328125 C46.2265625,13.2161512 46.0000023,14.1809854 45.546875,15.0273438 C45.0937477,15.8737021 44.4479209,16.5351539 43.609375,17.0117188 C42.7708291,17.4882836 41.8099012,17.7265625 40.7265625,17.7265625 C39.950517,17.7265625 39.2083369,17.5755223 38.5,17.2734375 C37.7916631,16.9713527 37.1822942,16.5651067 36.671875,16.0546875 C36.1614558,15.5442683 35.7552098,14.9348994 35.453125,14.2265625 C35.1510402,13.5182256 35,12.7760455 35,12 C35,11.2239545 35.1510402,10.4817744 35.453125,9.7734375 C35.7552098,9.06510063 36.1614558,8.45573172 36.671875,7.9453125 C37.1822942,7.43489328 37.7916631,7.02864734 38.5,6.7265625 C39.2083369,6.42447766 39.950517,6.2734375 40.7265625,6.2734375 C42.2161533,6.2734375 43.4947863,6.7734325 44.5625,7.7734375 L43.0078125,9.265625 C42.3984345,8.67708039 41.6380254,8.3828125 40.7265625,8.3828125 C40.0859343,8.3828125 39.4934923,8.54426922 38.9492188,8.8671875 C38.4049452,9.19010578 37.9739599,9.62890348 37.65625,10.1835938 C37.3385401,10.738284 37.1796875,11.3437467 37.1796875,12 C37.1796875,12.6562533 37.3385401,13.261716 37.65625,13.8164062 C37.9739599,14.3710965 38.4049452,14.8098942 38.9492188,15.1328125 C39.4934923,15.4557308 40.0859343,15.6171875 40.7265625,15.6171875 C41.1588563,15.6171875 41.5559878,15.5572923 41.9179688,15.4375 C42.2799497,15.3177077 42.5781238,15.1679696 42.8125,14.9882812 C43.0468762,14.8085929 43.2513012,14.6041678 43.4257812,14.375 C43.6002613,14.1458322 43.7278642,13.9296885 43.8085938,13.7265625 C43.8893233,13.5234365 43.9453123,13.3307301 43.9765625,13.1484375 L40.7265625,13.1484375 L40.7265625,11.1796875 L46.1328125,11.1796875 C46.1953128,11.5078141 46.2265625,11.8255193 46.2265625,12.1328125 Z M53,11.1796875 L53,12.8203125 L51.3671875,12.8203125 L51.3671875,14.453125 L49.7265625,14.453125 L49.7265625,12.8203125 L48.09375,12.8203125 L48.09375,11.1796875 L49.7265625,11.1796875 L49.7265625,9.546875 L51.3671875,9.546875 L51.3671875,11.1796875 L53,11.1796875 Z" id="-copy" fill="#FFFFFF"></path>
            <rect id="Rectangle-18-Copy-7" fill="#999999" x="64" y="0" width="24" height="24"></rect>
            <path d="M82.65625,8.1875 C82.3072899,8.69791922 81.8854191,9.1328107 81.390625,9.4921875 C81.3958334,9.56510453 81.3984375,9.67447844 81.3984375,9.8203125 C81.3984375,10.4973992 81.2994802,11.1731737 81.1015625,11.8476562 C80.9036448,12.5221388 80.6028666,13.1692677 80.1992188,13.7890625 C79.7955709,14.4088573 79.315107,14.9570289 78.7578125,15.4335938 C78.200518,15.9101586 77.5286498,16.2903632 76.7421875,16.5742188 C75.9557252,16.8580743 75.1145878,17 74.21875,17 C72.8072846,17 71.5156309,16.6223996 70.34375,15.8671875 C70.5260426,15.8880209 70.7291655,15.8984375 70.953125,15.8984375 C72.1250059,15.8984375 73.1692662,15.5390661 74.0859375,14.8203125 C73.5390598,14.8098958 73.0494813,14.6419287 72.6171875,14.3164062 C72.1848937,13.9908838 71.8880216,13.5755234 71.7265625,13.0703125 C71.8984384,13.0963543 72.0572909,13.109375 72.203125,13.109375 C72.4270845,13.109375 72.6484364,13.0807295 72.8671875,13.0234375 C72.2838512,12.9036452 71.8007832,12.6132836 71.4179688,12.1523438 C71.0351543,11.6914039 70.84375,11.156253 70.84375,10.546875 L70.84375,10.515625 C71.1979184,10.7135427 71.578123,10.8203124 71.984375,10.8359375 C71.6406233,10.6067697 71.3671885,10.3072935 71.1640625,9.9375 C70.9609365,9.56770648 70.859375,9.16666883 70.859375,8.734375 C70.859375,8.27603938 70.9739572,7.85156445 71.203125,7.4609375 C71.8333365,8.23698305 72.6002559,8.85807059 73.5039062,9.32421875 C74.4075566,9.79036691 75.3749948,10.0494789 76.40625,10.1015625 C76.3645831,9.90364484 76.34375,9.71093844 76.34375,9.5234375 C76.34375,8.82551734 76.5898413,8.23047121 77.0820312,7.73828125 C77.5742212,7.24609129 78.1692673,7 78.8671875,7 C79.5963578,7 80.210935,7.26562234 80.7109375,7.796875 C81.2786487,7.68749945 81.8124975,7.48437648 82.3125,7.1875 C82.1197907,7.78646133 81.7500027,8.24999836 81.203125,8.578125 C81.6875024,8.52604141 82.1718726,8.39583437 82.65625,8.1875 Z" id="-copy" fill="#FFFFFF"></path>
            <rect id="Rectangle-18-Copy-6" fill="#999999" x="96" y="0" width="24" height="24"></rect>
            <path d="M111.386,8.558 L106.066,15.39 L110.532,15.39 C110.784001,15.39 110.989333,15.4623326 111.148,15.607 C111.306667,15.7516674 111.386,15.9453321 111.386,16.188 C111.386,16.4213345 111.304334,16.6149992 111.141,16.769 C110.977666,16.9230008 110.774668,17 110.532,17 L104.386,17 C104.143332,17 103.933334,16.9160008 103.756,16.748 C103.578666,16.5799992 103.49,16.3886677 103.49,16.174 C103.49,15.9966658 103.555333,15.8193342 103.686,15.642 L108.992,8.81 L104.946,8.81 C104.693999,8.81 104.488667,8.73533408 104.33,8.586 C104.171333,8.43666592 104.092,8.24066788 104.092,7.998 C104.092,7.7646655 104.173666,7.57333408 104.337,7.424 C104.500334,7.27466592 104.703332,7.2 104.946,7.2 L110.672,7.2 C110.896001,7.2 111.103666,7.27933254 111.295,7.438 C111.486334,7.59666746 111.582,7.7926655 111.582,8.026 C111.582,8.20333422 111.516667,8.38066578 111.386,8.558 Z" id="Z-Copy" fill="#FFFFFF"></path>
            <rect id="Rectangle-18-Copy-5" fill="#999999" x="128" y="0" width="24" height="24"></rect>
            <rect id="Rectangle-18-Copy-11" fill="#999999" x="160" y="0" width="24" height="24"></rect>
            <rect id="Rectangle-18-Copy-13" fill="#999999" x="192" y="0" width="24" height="24"></rect>
            <path d="M201,17 C201,17.5416665 200.807292,18.0104165 200.421875,18.40625 C200.036458,18.8020835 199.567708,19 199.015625,19 C198.463542,19 197.989583,18.8020835 197.59375,18.40625 C197.197917,18.0104165 197,17.5364585 197,16.984375 C197,16.4322915 197.197917,15.9635415 197.59375,15.578125 C197.989583,15.1927085 198.463542,15 199.015625,15 C199.567708,15 200.036458,15.1927085 200.421875,15.578125 C200.807292,15.9635415 201,16.4375 201,17 Z M206.5,18.46875 C206.5,18.6145835 206.453125,18.7395835 206.359375,18.84375 C206.265625,18.9479165 206.145833,19 206,19 L204.5,19 C204.354167,19 204.234375,18.953125 204.140625,18.859375 C204.046875,18.765625 204,18.65625 204,18.53125 C203.916667,17.3854165 203.578125,16.328125 202.984375,15.359375 C202.390625,14.390625 201.609375,13.609375 200.640625,13.015625 C199.671875,12.421875 198.614583,12.0833335 197.46875,12 C197.34375,12 197.234375,11.953125 197.140625,11.859375 C197.046875,11.765625 197,11.6458335 197,11.5 L197,10 C197,9.85416651 197.052083,9.734375 197.15625,9.640625 C197.260417,9.546875 197.385417,9.5 197.53125,9.5 C199.114583,9.58333349 200.572917,10.0364585 201.90625,10.859375 C203.239583,11.6822915 204.317708,12.7604165 205.140625,14.09375 C205.963542,15.4270835 206.416667,16.8854165 206.5,18.46875 Z M211,18.46875 C211,18.6145835 210.953125,18.7395835 210.859375,18.84375 C210.765625,18.9479165 210.645833,19 210.5,19 L209,19 C208.854167,19 208.734375,18.953125 208.640625,18.859375 C208.546875,18.765625 208.5,18.65625 208.5,18.53125 C208.416667,16.5520835 207.875,14.7291665 206.875,13.0625 C205.875,11.4375 204.5625,10.125 202.9375,9.125 C201.270833,8.125 199.447917,7.58333349 197.46875,7.5 C197.34375,7.5 197.234375,7.453125 197.140625,7.359375 C197.046875,7.265625 197,7.14583349 197,7 L197,5.5 C197,5.35416651 197.052083,5.234375 197.15625,5.140625 C197.260417,5.046875 197.385417,5 197.53125,5 C199.927083,5.08333349 202.15625,5.75 204.21875,7 C206.21875,8.1875 207.822917,9.79166651 209.03125,11.8125 C210.260417,13.8541665 210.916667,16.0729165 211,18.46875 Z" id="" fill="#FFFFFF"></path>
            <path d="M177.574437,12.1685324 L167.427867,17.8072133 C167.310713,17.8734312 167.210114,17.8810717 167.126068,17.8301348 C167.042022,17.779198 167,17.687513 167,17.5550772 L167,6.30827734 C167,6.17584153 167.042022,6.08415658 167.126068,6.03321973 C167.210114,5.98228288 167.310713,5.98992329 167.427867,6.0561412 L177.574437,11.6948221 C177.691592,11.76104 177.750168,11.8399909 177.750168,11.9316773 C177.750168,12.0233636 177.691592,12.1023145 177.574437,12.1685324 Z" id="-copy" fill="#FFFFFF"></path>
            <path d="M147,10.546875 L147,16.75 C147,17.0937517 146.877605,17.3880196 146.632812,17.6328125 C146.38802,17.8776054 146.093752,18 145.75,18 L134.25,18 C133.906248,18 133.61198,17.8776054 133.367188,17.6328125 C133.122395,17.3880196 133,17.0937517 133,16.75 L133,10.546875 C133.229168,10.8020846 133.492186,11.0286448 133.789062,11.2265625 C135.674489,12.5078189 136.968746,13.4062474 137.671875,13.921875 C137.968751,14.1406261 138.209634,14.3111973 138.394531,14.4335938 C138.579428,14.5559902 138.825519,14.6809889 139.132812,14.8085938 C139.440106,14.9361986 139.726561,15 139.992188,15 L140.007812,15 C140.273439,15 140.559894,14.9361986 140.867188,14.8085938 C141.174481,14.6809889 141.420572,14.5559902 141.605469,14.4335938 C141.790366,14.3111973 142.031249,14.1406261 142.328125,13.921875 C143.213546,13.2812468 144.510408,12.3828183 146.21875,11.2265625 C146.515626,11.0234365 146.776041,10.7968762 147,10.546875 Z M147,8.25 C147,8.66146039 146.872397,9.05468562 146.617188,9.4296875 C146.361978,9.80468938 146.044273,10.1249987 145.664062,10.390625 C143.705719,11.7500068 142.486982,12.5963525 142.007812,12.9296875 C141.955729,12.966146 141.845053,13.0455723 141.675781,13.1679688 C141.50651,13.2903652 141.365886,13.3893225 141.253906,13.4648438 C141.141927,13.540365 141.006511,13.6249995 140.847656,13.71875 C140.688801,13.8125005 140.539063,13.8828123 140.398438,13.9296875 C140.257812,13.9765627 140.127605,14 140.007812,14 L139.992188,14 C139.872395,14 139.742188,13.9765627 139.601562,13.9296875 C139.460937,13.8828123 139.311199,13.8125005 139.152344,13.71875 C138.993489,13.6249995 138.858073,13.540365 138.746094,13.4648438 C138.634114,13.3893225 138.49349,13.2903652 138.324219,13.1679688 C138.154947,13.0455723 138.044271,12.966146 137.992188,12.9296875 C137.518227,12.5963525 136.835942,12.1210968 135.945312,11.5039062 C135.054683,10.8867157 134.520834,10.5156256 134.34375,10.390625 C134.020832,10.1718739 133.716147,9.87109566 133.429688,9.48828125 C133.143228,9.10546684 133,8.75000164 133,8.421875 C133,8.01562297 133.108072,7.67708469 133.324219,7.40625 C133.540366,7.13541531 133.848956,7 134.25,7 L145.75,7 C146.088543,7 146.381509,7.12239461 146.628906,7.3671875 C146.876303,7.61198039 147,7.90624828 147,8.25 Z" id="-copy" fill="#FFFFFF"></path>
        </g>
        <g id="Group-Copy-3" transform="translate(0.000000, 172.000000)">
            <rect id="Rectangle-18-Copy-9" fill="#777777" x="0" y="0" width="24" height="24"></rect>
            <path d="M15.4921875,5.09375 L15.4921875,7.15625 L14.265625,7.15625 C13.8177061,7.15625 13.5156258,7.24999906 13.359375,7.4375 C13.2031242,7.62500094 13.125,7.90624812 13.125,8.28125 L13.125,9.7578125 L15.4140625,9.7578125 L15.109375,12.0703125 L13.125,12.0703125 L13.125,18 L10.734375,18 L10.734375,12.0703125 L8.7421875,12.0703125 L8.7421875,9.7578125 L10.734375,9.7578125 L10.734375,8.0546875 C10.734375,7.08593266 11.0052056,6.33463809 11.546875,5.80078125 C12.0885444,5.26692441 12.8098913,5 13.7109375,5 C14.4765663,5 15.0703104,5.03124969 15.4921875,5.09375 Z" id="-copy" fill="#FFFFFF"></path>
            <rect id="Rectangle-18-Copy-8" fill="#777777" x="32" y="0" width="24" height="24"></rect>
            <path d="M46.2265625,12.1328125 C46.2265625,13.2161512 46.0000023,14.1809854 45.546875,15.0273438 C45.0937477,15.8737021 44.4479209,16.5351539 43.609375,17.0117188 C42.7708291,17.4882836 41.8099012,17.7265625 40.7265625,17.7265625 C39.950517,17.7265625 39.2083369,17.5755223 38.5,17.2734375 C37.7916631,16.9713527 37.1822942,16.5651067 36.671875,16.0546875 C36.1614558,15.5442683 35.7552098,14.9348994 35.453125,14.2265625 C35.1510402,13.5182256 35,12.7760455 35,12 C35,11.2239545 35.1510402,10.4817744 35.453125,9.7734375 C35.7552098,9.06510063 36.1614558,8.45573172 36.671875,7.9453125 C37.1822942,7.43489328 37.7916631,7.02864734 38.5,6.7265625 C39.2083369,6.42447766 39.950517,6.2734375 40.7265625,6.2734375 C42.2161533,6.2734375 43.4947863,6.7734325 44.5625,7.7734375 L43.0078125,9.265625 C42.3984345,8.67708039 41.6380254,8.3828125 40.7265625,8.3828125 C40.0859343,8.3828125 39.4934923,8.54426922 38.9492188,8.8671875 C38.4049452,9.19010578 37.9739599,9.62890348 37.65625,10.1835938 C37.3385401,10.738284 37.1796875,11.3437467 37.1796875,12 C37.1796875,12.6562533 37.3385401,13.261716 37.65625,13.8164062 C37.9739599,14.3710965 38.4049452,14.8098942 38.9492188,15.1328125 C39.4934923,15.4557308 40.0859343,15.6171875 40.7265625,15.6171875 C41.1588563,15.6171875 41.5559878,15.5572923 41.9179688,15.4375 C42.2799497,15.3177077 42.5781238,15.1679696 42.8125,14.9882812 C43.0468762,14.8085929 43.2513012,14.6041678 43.4257812,14.375 C43.6002613,14.1458322 43.7278642,13.9296885 43.8085938,13.7265625 C43.8893233,13.5234365 43.9453123,13.3307301 43.9765625,13.1484375 L40.7265625,13.1484375 L40.7265625,11.1796875 L46.1328125,11.1796875 C46.1953128,11.5078141 46.2265625,11.8255193 46.2265625,12.1328125 Z M53,11.1796875 L53,12.8203125 L51.3671875,12.8203125 L51.3671875,14.453125 L49.7265625,14.453125 L49.7265625,12.8203125 L48.09375,12.8203125 L48.09375,11.1796875 L49.7265625,11.1796875 L49.7265625,9.546875 L51.3671875,9.546875 L51.3671875,11.1796875 L53,11.1796875 Z" id="-copy" fill="#FFFFFF"></path>
            <rect id="Rectangle-18-Copy-7" fill="#777777" x="64" y="0" width="24" height="24"></rect>
            <path d="M82.65625,8.1875 C82.3072899,8.69791922 81.8854191,9.1328107 81.390625,9.4921875 C81.3958334,9.56510453 81.3984375,9.67447844 81.3984375,9.8203125 C81.3984375,10.4973992 81.2994802,11.1731737 81.1015625,11.8476562 C80.9036448,12.5221388 80.6028666,13.1692677 80.1992188,13.7890625 C79.7955709,14.4088573 79.315107,14.9570289 78.7578125,15.4335938 C78.200518,15.9101586 77.5286498,16.2903632 76.7421875,16.5742188 C75.9557252,16.8580743 75.1145878,17 74.21875,17 C72.8072846,17 71.5156309,16.6223996 70.34375,15.8671875 C70.5260426,15.8880209 70.7291655,15.8984375 70.953125,15.8984375 C72.1250059,15.8984375 73.1692662,15.5390661 74.0859375,14.8203125 C73.5390598,14.8098958 73.0494813,14.6419287 72.6171875,14.3164062 C72.1848937,13.9908838 71.8880216,13.5755234 71.7265625,13.0703125 C71.8984384,13.0963543 72.0572909,13.109375 72.203125,13.109375 C72.4270845,13.109375 72.6484364,13.0807295 72.8671875,13.0234375 C72.2838512,12.9036452 71.8007832,12.6132836 71.4179688,12.1523438 C71.0351543,11.6914039 70.84375,11.156253 70.84375,10.546875 L70.84375,10.515625 C71.1979184,10.7135427 71.578123,10.8203124 71.984375,10.8359375 C71.6406233,10.6067697 71.3671885,10.3072935 71.1640625,9.9375 C70.9609365,9.56770648 70.859375,9.16666883 70.859375,8.734375 C70.859375,8.27603938 70.9739572,7.85156445 71.203125,7.4609375 C71.8333365,8.23698305 72.6002559,8.85807059 73.5039062,9.32421875 C74.4075566,9.79036691 75.3749948,10.0494789 76.40625,10.1015625 C76.3645831,9.90364484 76.34375,9.71093844 76.34375,9.5234375 C76.34375,8.82551734 76.5898413,8.23047121 77.0820312,7.73828125 C77.5742212,7.24609129 78.1692673,7 78.8671875,7 C79.5963578,7 80.210935,7.26562234 80.7109375,7.796875 C81.2786487,7.68749945 81.8124975,7.48437648 82.3125,7.1875 C82.1197907,7.78646133 81.7500027,8.24999836 81.203125,8.578125 C81.6875024,8.52604141 82.1718726,8.39583437 82.65625,8.1875 Z" id="-copy" fill="#FFFFFF"></path>
            <rect id="Rectangle-18-Copy-6" fill="#777777" x="96" y="0" width="24" height="24"></rect>
            <path d="M111.386,8.558 L106.066,15.39 L110.532,15.39 C110.784001,15.39 110.989333,15.4623326 111.148,15.607 C111.306667,15.7516674 111.386,15.9453321 111.386,16.188 C111.386,16.4213345 111.304334,16.6149992 111.141,16.769 C110.977666,16.9230008 110.774668,17 110.532,17 L104.386,17 C104.143332,17 103.933334,16.9160008 103.756,16.748 C103.578666,16.5799992 103.49,16.3886677 103.49,16.174 C103.49,15.9966658 103.555333,15.8193342 103.686,15.642 L108.992,8.81 L104.946,8.81 C104.693999,8.81 104.488667,8.73533408 104.33,8.586 C104.171333,8.43666592 104.092,8.24066788 104.092,7.998 C104.092,7.7646655 104.173666,7.57333408 104.337,7.424 C104.500334,7.27466592 104.703332,7.2 104.946,7.2 L110.672,7.2 C110.896001,7.2 111.103666,7.27933254 111.295,7.438 C111.486334,7.59666746 111.582,7.7926655 111.582,8.026 C111.582,8.20333422 111.516667,8.38066578 111.386,8.558 Z" id="Z-Copy" fill="#FFFFFF"></path>
            <rect id="Rectangle-18-Copy-5" fill="#777777" x="128" y="0" width="24" height="24"></rect>
            <rect id="Rectangle-18-Copy-11" fill="#777777" x="160" y="0" width="24" height="24"></rect>
            <rect id="Rectangle-18-Copy-13" fill="#777777" x="192" y="0" width="24" height="24"></rect>
            <path d="M201,17 C201,17.5416665 200.807292,18.0104165 200.421875,18.40625 C200.036458,18.8020835 199.567708,19 199.015625,19 C198.463542,19 197.989583,18.8020835 197.59375,18.40625 C197.197917,18.0104165 197,17.5364585 197,16.984375 C197,16.4322915 197.197917,15.9635415 197.59375,15.578125 C197.989583,15.1927085 198.463542,15 199.015625,15 C199.567708,15 200.036458,15.1927085 200.421875,15.578125 C200.807292,15.9635415 201,16.4375 201,17 Z M206.5,18.46875 C206.5,18.6145835 206.453125,18.7395835 206.359375,18.84375 C206.265625,18.9479165 206.145833,19 206,19 L204.5,19 C204.354167,19 204.234375,18.953125 204.140625,18.859375 C204.046875,18.765625 204,18.65625 204,18.53125 C203.916667,17.3854165 203.578125,16.328125 202.984375,15.359375 C202.390625,14.390625 201.609375,13.609375 200.640625,13.015625 C199.671875,12.421875 198.614583,12.0833335 197.46875,12 C197.34375,12 197.234375,11.953125 197.140625,11.859375 C197.046875,11.765625 197,11.6458335 197,11.5 L197,10 C197,9.85416651 197.052083,9.734375 197.15625,9.640625 C197.260417,9.546875 197.385417,9.5 197.53125,9.5 C199.114583,9.58333349 200.572917,10.0364585 201.90625,10.859375 C203.239583,11.6822915 204.317708,12.7604165 205.140625,14.09375 C205.963542,15.4270835 206.416667,16.8854165 206.5,18.46875 Z M211,18.46875 C211,18.6145835 210.953125,18.7395835 210.859375,18.84375 C210.765625,18.9479165 210.645833,19 210.5,19 L209,19 C208.854167,19 208.734375,18.953125 208.640625,18.859375 C208.546875,18.765625 208.5,18.65625 208.5,18.53125 C208.416667,16.5520835 207.875,14.7291665 206.875,13.0625 C205.875,11.4375 204.5625,10.125 202.9375,9.125 C201.270833,8.125 199.447917,7.58333349 197.46875,7.5 C197.34375,7.5 197.234375,7.453125 197.140625,7.359375 C197.046875,7.265625 197,7.14583349 197,7 L197,5.5 C197,5.35416651 197.052083,5.234375 197.15625,5.140625 C197.260417,5.046875 197.385417,5 197.53125,5 C199.927083,5.08333349 202.15625,5.75 204.21875,7 C206.21875,8.1875 207.822917,9.79166651 209.03125,11.8125 C210.260417,13.8541665 210.916667,16.0729165 211,18.46875 Z" id="" fill="#FFFFFF"></path>
            <path d="M177.574437,12.1685324 L167.427867,17.8072133 C167.310713,17.8734312 167.210114,17.8810717 167.126068,17.8301348 C167.042022,17.779198 167,17.687513 167,17.5550772 L167,6.30827734 C167,6.17584153 167.042022,6.08415658 167.126068,6.03321973 C167.210114,5.98228288 167.310713,5.98992329 167.427867,6.0561412 L177.574437,11.6948221 C177.691592,11.76104 177.750168,11.8399909 177.750168,11.9316773 C177.750168,12.0233636 177.691592,12.1023145 177.574437,12.1685324 Z" id="-copy" fill="#FFFFFF"></path>
            <path d="M147,10.546875 L147,16.75 C147,17.0937517 146.877605,17.3880196 146.632812,17.6328125 C146.38802,17.8776054 146.093752,18 145.75,18 L134.25,18 C133.906248,18 133.61198,17.8776054 133.367188,17.6328125 C133.122395,17.3880196 133,17.0937517 133,16.75 L133,10.546875 C133.229168,10.8020846 133.492186,11.0286448 133.789062,11.2265625 C135.674489,12.5078189 136.968746,13.4062474 137.671875,13.921875 C137.968751,14.1406261 138.209634,14.3111973 138.394531,14.4335938 C138.579428,14.5559902 138.825519,14.6809889 139.132812,14.8085938 C139.440106,14.9361986 139.726561,15 139.992188,15 L140.007812,15 C140.273439,15 140.559894,14.9361986 140.867188,14.8085938 C141.174481,14.6809889 141.420572,14.5559902 141.605469,14.4335938 C141.790366,14.3111973 142.031249,14.1406261 142.328125,13.921875 C143.213546,13.2812468 144.510408,12.3828183 146.21875,11.2265625 C146.515626,11.0234365 146.776041,10.7968762 147,10.546875 Z M147,8.25 C147,8.66146039 146.872397,9.05468562 146.617188,9.4296875 C146.361978,9.80468938 146.044273,10.1249987 145.664062,10.390625 C143.705719,11.7500068 142.486982,12.5963525 142.007812,12.9296875 C141.955729,12.966146 141.845053,13.0455723 141.675781,13.1679688 C141.50651,13.2903652 141.365886,13.3893225 141.253906,13.4648438 C141.141927,13.540365 141.006511,13.6249995 140.847656,13.71875 C140.688801,13.8125005 140.539063,13.8828123 140.398438,13.9296875 C140.257812,13.9765627 140.127605,14 140.007812,14 L139.992188,14 C139.872395,14 139.742188,13.9765627 139.601562,13.9296875 C139.460937,13.8828123 139.311199,13.8125005 139.152344,13.71875 C138.993489,13.6249995 138.858073,13.540365 138.746094,13.4648438 C138.634114,13.3893225 138.49349,13.2903652 138.324219,13.1679688 C138.154947,13.0455723 138.044271,12.966146 137.992188,12.9296875 C137.518227,12.5963525 136.835942,12.1210968 135.945312,11.5039062 C135.054683,10.8867157 134.520834,10.5156256 134.34375,10.390625 C134.020832,10.1718739 133.716147,9.87109566 133.429688,9.48828125 C133.143228,9.10546684 133,8.75000164 133,8.421875 C133,8.01562297 133.108072,7.67708469 133.324219,7.40625 C133.540366,7.13541531 133.848956,7 134.25,7 L145.75,7 C146.088543,7 146.381509,7.12239461 146.628906,7.3671875 C146.876303,7.61198039 147,7.90624828 147,8.25 Z" id="-copy" fill="#FFFFFF"></path>
        </g>
        <rect id="Rectangle-6-Copy-4" fill="#C4C4C4" x="0" y="324" width="24" height="24" rx="12"></rect>
        <path d="M17,339.929688 C17,340.497399 16.8372412,340.984373 16.5117188,341.390625 C16.1861963,341.796877 15.7942731,342 15.3359375,342 L8.6640625,342 C8.20572687,342 7.81380371,341.796877 7.48828125,341.390625 C7.16275879,340.984373 7,340.497399 7,339.929688 C7,339.486977 7.0221352,339.069012 7.06640625,338.675781 C7.1106773,338.28255 7.19270773,337.886721 7.3125,337.488281 C7.43229227,337.089842 7.58463449,336.748699 7.76953125,336.464844 C7.95442801,336.180988 8.19921723,335.94922 8.50390625,335.769531 C8.80859527,335.589843 9.15885219,335.5 9.5546875,335.5 C10.2369826,336.16667 11.0520786,336.5 12,336.5 C12.9479214,336.5 13.7630174,336.16667 14.4453125,335.5 C14.8411478,335.5 15.1914047,335.589843 15.4960938,335.769531 C15.8007828,335.94922 16.045572,336.180988 16.2304688,336.464844 C16.4153655,336.748699 16.5677077,337.089842 16.6875,337.488281 C16.8072923,337.886721 16.8893227,338.28255 16.9335938,338.675781 C16.9778648,339.069012 17,339.486977 17,339.929688 Z M15,333 C15,333.828129 14.7070342,334.535153 14.1210938,335.121094 C13.5351533,335.707034 12.8281291,336 12,336 C11.1718709,336 10.4648467,335.707034 9.87890625,335.121094 C9.29296582,334.535153 9,333.828129 9,333 C9,332.171871 9.29296582,331.464847 9.87890625,330.878906 C10.4648467,330.292966 11.1718709,330 12,330 C12.8281291,330 13.5351533,330.292966 14.1210938,330.878906 C14.7070342,331.464847 15,332.171871 15,333 Z" id="" fill="#FFFFFF"></path>
        <path d="M2,368.5 C2,368.364583 1.95052133,368.247396 1.8515625,368.148438 C1.75260367,368.049479 1.63541734,368 1.5,368 C1.36458266,368 1.24739633,368.049479 1.1484375,368.148438 C1.04947867,368.247396 1,368.364583 1,368.5 C1,368.635417 1.04947867,368.752604 1.1484375,368.851562 C1.24739633,368.950521 1.36458266,369 1.5,369 C1.63541734,369 1.75260367,368.950521 1.8515625,368.851562 C1.95052133,368.752604 2,368.635417 2,368.5 Z M11,364 C11,363.734374 10.8984385,363.501303 10.6953125,363.300781 C10.4921865,363.100259 10.260418,363 10,363 L7.25,363 C7.25,362.697915 7.37499875,362.282555 7.625,361.753906 C7.87500125,361.225258 8,360.807293 8,360.5 C8,359.989581 7.9166675,359.61198 7.75,359.367188 C7.5833325,359.122395 7.2500025,359 6.75,359 C6.61458266,359.135417 6.51562531,359.356769 6.453125,359.664062 C6.39062469,359.971356 6.3111984,360.298175 6.21484375,360.644531 C6.1184891,360.990887 5.96354273,361.276041 5.75,361.5 C5.63541609,361.619792 5.43489727,361.856769 5.1484375,362.210938 C5.12760406,362.236979 5.06770883,362.315104 4.96875,362.445312 C4.86979117,362.575521 4.78776074,362.682291 4.72265625,362.765625 C4.65755176,362.848959 4.56770891,362.959635 4.453125,363.097656 C4.33854109,363.235678 4.23437547,363.35026 4.140625,363.441406 C4.04687453,363.532553 3.94661512,363.625 3.83984375,363.71875 C3.73307238,363.8125 3.62890676,363.882812 3.52734375,363.929688 C3.42578074,363.976563 3.33333375,364 3.25,364 L3,364 L3,369 L3.25,369 C3.31770867,369 3.3997391,369.007812 3.49609375,369.023438 C3.5924484,369.039063 3.67838504,369.055989 3.75390625,369.074219 C3.82942746,369.092448 3.9283848,369.121094 4.05078125,369.160156 C4.1731777,369.199219 4.26432262,369.229167 4.32421875,369.25 C4.38411488,369.270833 4.47656187,369.303385 4.6015625,369.347656 C4.72656313,369.391927 4.8020832,369.419271 4.828125,369.429688 C5.92708883,369.809898 6.81770492,370 7.5,370 L8.4453125,370 C9.4453175,370 9.9453125,369.565109 9.9453125,368.695312 C9.9453125,368.559895 9.9322918,368.414063 9.90625,368.257812 C10.0625008,368.174479 10.1861975,368.037761 10.2773438,367.847656 C10.36849,367.657551 10.4140625,367.466147 10.4140625,367.273438 C10.4140625,367.080728 10.367188,366.901043 10.2734375,366.734375 C10.5494805,366.473957 10.6875,366.164064 10.6875,365.804688 C10.6875,365.674479 10.6614586,365.529949 10.609375,365.371094 C10.5572914,365.212239 10.4921879,365.088542 10.4140625,365 C10.58073,364.994792 10.7200515,364.872397 10.8320312,364.632812 C10.944011,364.393228 11,364.182293 11,364 Z M12,363.992188 C12,364.455731 11.8723971,364.880206 11.6171875,365.265625 C11.6640627,365.437501 11.6875,365.617187 11.6875,365.804688 C11.6875,366.205731 11.5885427,366.580727 11.390625,366.929688 C11.4062501,367.039063 11.4140625,367.151041 11.4140625,367.265625 C11.4140625,367.791669 11.2578141,368.255206 10.9453125,368.65625 C10.9505209,369.380212 10.7291689,369.951821 10.28125,370.371094 C9.83333109,370.790367 9.24219117,371 8.5078125,371 L7.5,371 C6.9999975,371 6.50651285,370.941407 6.01953125,370.824219 C5.53254965,370.707031 4.9687532,370.536459 4.328125,370.3125 C3.72395531,370.104166 3.36458391,370 3.25,370 L1,370 C0.723956953,370 0.488282227,369.902345 0.29296875,369.707031 C0.0976552734,369.511718 0,369.276043 0,369 L0,364 C0,363.723957 0.0976552734,363.488282 0.29296875,363.292969 C0.488282227,363.097655 0.723956953,363 1,363 L3.140625,363 C3.32812594,362.874999 3.6848932,362.471358 4.2109375,361.789062 C4.51302234,361.398436 4.79166539,361.065106 5.046875,360.789062 C5.17187563,360.658854 5.26432262,360.436199 5.32421875,360.121094 C5.38411488,359.805988 5.46354117,359.476564 5.5625,359.132812 C5.66145883,358.789061 5.82291555,358.507814 6.046875,358.289062 C6.25000102,358.096353 6.48437367,358 6.75,358 C7.18750219,358 7.58072742,358.084635 7.9296875,358.253906 C8.27864758,358.423178 8.54426992,358.687498 8.7265625,359.046875 C8.90885508,359.406252 9,359.890622 9,360.5 C9,360.984377 8.87500125,361.484372 8.625,362 L10,362 C10.5416694,362 11.0104147,362.197915 11.40625,362.59375 C11.8020853,362.989585 12,363.455726 12,363.992188 Z" id="" fill="#808080"></path>
        <path d="M5.5,382 C4.70312102,382 3.9583368,382.135415 3.265625,382.40625 C2.5729132,382.677085 2.02213746,383.044269 1.61328125,383.507812 C1.20442504,383.971356 1,384.468747 1,385 C1,385.427085 1.13801945,385.83854 1.4140625,386.234375 C1.69010555,386.63021 2.0781225,386.973957 2.578125,387.265625 L3.3359375,387.703125 L3.0625,388.359375 C3.23958422,388.255208 3.40104094,388.153646 3.546875,388.054688 L3.890625,387.8125 L4.3046875,387.890625 C4.71093953,387.963542 5.10937305,388 5.5,388 C6.29687898,388 7.0416632,387.864585 7.734375,387.59375 C8.4270868,387.322915 8.97786254,386.955731 9.38671875,386.492188 C9.79557496,386.028644 10,385.531253 10,385 C10,384.468747 9.79557496,383.971356 9.38671875,383.507812 C8.97786254,383.044269 8.4270868,382.677085 7.734375,382.40625 C7.0416632,382.135415 6.29687898,382 5.5,382 Z M5.5,381 C6.49479664,381 7.41536035,381.178384 8.26171875,381.535156 C9.10807715,381.891929 9.77603922,382.377601 10.265625,382.992188 C10.7552108,383.606774 11,384.276038 11,385 C11,385.723962 10.7552108,386.393226 10.265625,387.007812 C9.77603922,387.622399 9.10807715,388.108071 8.26171875,388.464844 C7.41536035,388.821616 6.49479664,389 5.5,389 C5.05208109,389 4.59375234,388.958334 4.125,388.875 C3.47916344,389.333336 2.75521234,389.666666 1.953125,389.875 C1.76562406,389.921875 1.54166797,389.963541 1.28125,390 L1.2578125,390 C1.20052055,390 1.14713566,389.979167 1.09765625,389.9375 C1.04817684,389.895833 1.01822922,389.841146 1.0078125,389.773438 C1.00260414,389.757812 1,389.740886 1,389.722656 C1,389.704427 1.00130207,389.6875 1.00390625,389.671875 C1.00651043,389.65625 1.01171871,389.640625 1.01953125,389.625 L1.0390625,389.585938 C1.04427086,389.575521 1.05338535,389.561198 1.06640625,389.542969 C1.07942715,389.524739 1.08984371,389.511719 1.09765625,389.503906 C1.10546879,389.496094 1.11718742,389.483073 1.1328125,389.464844 C1.14843758,389.446614 1.15885414,389.434896 1.1640625,389.429688 C1.1901043,389.398437 1.24999953,389.333334 1.34375,389.234375 C1.43750047,389.135416 1.50520812,389.058594 1.546875,389.003906 C1.58854188,388.949218 1.64713504,388.873698 1.72265625,388.777344 C1.79817746,388.680989 1.86328098,388.58073 1.91796875,388.476562 C1.97265652,388.372395 2.02604141,388.257813 2.078125,388.132812 C1.43228844,387.757811 0.924481016,387.296878 0.5546875,386.75 C0.184893984,386.203122 0,385.619795 0,385 C0,384.276038 0.244789219,383.606774 0.734375,382.992188 C1.22396078,382.377601 1.89192285,381.891929 2.73828125,381.535156 C3.58463965,381.178384 4.50520336,381 5.5,381 Z M11.921875,390.132812 C11.9739586,390.257813 12.0273435,390.372395 12.0820312,390.476562 C12.136719,390.58073 12.2018225,390.680989 12.2773438,390.777344 C12.352865,390.873698 12.4114581,390.949218 12.453125,391.003906 C12.4947919,391.058594 12.5624995,391.135416 12.65625,391.234375 C12.7500005,391.333334 12.8098957,391.398437 12.8359375,391.429688 C12.8411459,391.434896 12.8515624,391.446614 12.8671875,391.464844 C12.8828126,391.483073 12.8945312,391.496094 12.9023438,391.503906 C12.9101563,391.511719 12.9205729,391.524739 12.9335938,391.542969 C12.9466146,391.561198 12.9557291,391.575521 12.9609375,391.585938 L12.9804688,391.625 C12.9882813,391.640625 12.9934896,391.65625 12.9960938,391.671875 C12.9986979,391.6875 13,391.704427 13,391.722656 C13,391.740886 12.9973959,391.757812 12.9921875,391.773438 C12.9765624,391.846355 12.9427086,391.903646 12.890625,391.945312 C12.8385414,391.986979 12.7812503,392.005208 12.71875,392 C12.458332,391.963541 12.2343759,391.921875 12.046875,391.875 C11.2447877,391.666666 10.5208366,391.333336 9.875,390.875 C9.40624766,390.958334 8.94791891,391 8.5,391 C7.08853461,391 5.85938023,390.656253 4.8125,389.96875 C5.11458484,389.989583 5.34374922,390 5.5,390 C6.33854586,390 7.14322531,389.882814 7.9140625,389.648438 C8.68489969,389.414061 9.37239281,389.078127 9.9765625,388.640625 C10.6276074,388.161456 11.1276024,387.609378 11.4765625,386.984375 C11.8255226,386.359372 12,385.69792 12,385 C12,384.598956 11.9401048,384.203127 11.8203125,383.8125 C12.4921909,384.182294 13.0234355,384.645831 13.4140625,385.203125 C13.8046895,385.760419 14,386.359372 14,387 C14,387.625003 13.815106,388.209633 13.4453125,388.753906 C13.075519,389.29818 12.5677116,389.757811 11.921875,390.132812 Z" id="" fill="#808080"></path>
        <path d="M24,367.5 C24,367.364583 23.9505213,367.247396 23.8515625,367.148438 C23.7526037,367.049479 23.6354173,367 23.5,367 C23.3593743,367 23.2408859,367.049479 23.1445312,367.148438 C23.0481766,367.247396 23,367.364583 23,367.5 C23,367.640626 23.0481766,367.759114 23.1445312,367.855469 C23.2408859,367.951823 23.3593743,368 23.5,368 C23.6354173,368 23.7526037,367.951823 23.8515625,367.855469 C23.9505213,367.759114 24,367.640626 24,367.5 Z M25.25,363.5 L25.25,368.5 C25.25,368.635417 25.2005213,368.752604 25.1015625,368.851562 C25.0026037,368.950521 24.8854173,369 24.75,369 L22.5,369 C22.3645827,369 22.2473963,368.950521 22.1484375,368.851562 C22.0494787,368.752604 22,368.635417 22,368.5 L22,363.5 C22,363.364583 22.0494787,363.247396 22.1484375,363.148438 C22.2473963,363.049479 22.3645827,363 22.5,363 L24.75,363 C24.8854173,363 25.0026037,363.049479 25.1015625,363.148438 C25.2005213,363.247396 25.25,363.364583 25.25,363.5 Z M34.5,363.5 C34.5,363.947919 34.3567723,364.335936 34.0703125,364.664062 C34.1484379,364.89323 34.1875,365.091145 34.1875,365.257812 C34.2031251,365.653648 34.091147,366.010415 33.8515625,366.328125 C33.9401046,366.619793 33.9401046,366.924478 33.8515625,367.242188 C33.7734371,367.539064 33.6328135,367.783853 33.4296875,367.976562 C33.4765627,368.559899 33.3489598,369.031248 33.046875,369.390625 C32.71354,369.78646 32.2005243,369.989583 31.5078125,370 L30.5,370 C30.1562483,370 29.781252,369.959636 29.375,369.878906 C28.968748,369.798177 28.6523449,369.722657 28.4257812,369.652344 C28.1992176,369.582031 27.8854187,369.479167 27.484375,369.34375 C26.8437468,369.119791 26.4322926,369.005208 26.25,369 C26.1145827,368.994792 25.9973963,368.944011 25.8984375,368.847656 C25.7994787,368.751302 25.75,368.635417 25.75,368.5 L25.75,363.492188 C25.75,363.361979 25.7968745,363.248698 25.890625,363.152344 C25.9843755,363.055989 26.0963535,363.002604 26.2265625,362.992188 C26.3515631,362.981771 26.5494778,362.828126 26.8203125,362.53125 C27.0911472,362.234374 27.3541654,361.919272 27.609375,361.585938 C27.9635434,361.13281 28.2265616,360.820313 28.3984375,360.648438 C28.492188,360.554687 28.5729163,360.429688 28.640625,360.273438 C28.7083337,360.117187 28.7539061,359.990886 28.7773438,359.894531 C28.8007814,359.798177 28.8359373,359.640626 28.8828125,359.421875 C28.919271,359.218749 28.9518228,359.059896 28.9804688,358.945312 C29.0091147,358.830729 29.0598955,358.695313 29.1328125,358.539062 C29.2057295,358.382812 29.2942703,358.252605 29.3984375,358.148438 C29.4973963,358.049479 29.6145827,358 29.75,358 C29.9895845,358 30.2044261,358.027343 30.3945312,358.082031 C30.5846364,358.136719 30.7408848,358.204427 30.8632812,358.285156 C30.9856777,358.365886 31.0898433,358.471354 31.1757812,358.601562 C31.2617192,358.731771 31.3242186,358.848958 31.3632812,358.953125 C31.4023439,359.057292 31.4335936,359.187499 31.4570312,359.34375 C31.4804689,359.500001 31.4934896,359.617187 31.4960938,359.695312 C31.4986979,359.773438 31.5,359.874999 31.5,360 C31.5,360.197918 31.4752607,360.395832 31.4257812,360.59375 C31.3763018,360.791668 31.3268232,360.947916 31.2773438,361.0625 C31.2278643,361.177084 31.1562505,361.322916 31.0625,361.5 C31.0468749,361.53125 31.0208335,361.578125 30.984375,361.640625 C30.9479165,361.703125 30.9192709,361.760416 30.8984375,361.8125 C30.8776041,361.864584 30.8567709,361.927083 30.8359375,362 L33,362 C33.406252,362 33.757811,362.148436 34.0546875,362.445312 C34.351564,362.742189 34.5,363.093748 34.5,363.5 Z" id="" fill="#808080"></path>
        <path d="M13,458.461279 C13,458.753088 12.8978686,459.001121 12.6936027,459.205387 L11.2053872,460.693603 C11.0011213,460.897869 10.7530879,461 10.4612795,461 C10.169471,461 9.92143761,460.897869 9.71717172,460.693603 L6.5,457.476431 L3.28282828,460.693603 C3.07856239,460.897869 2.83052896,461 2.53872054,461 C2.24691212,461 1.99887869,460.897869 1.79461279,460.693603 L0.306397306,459.205387 C0.102131414,459.001121 0,458.753088 0,458.461279 C0,458.169471 0.102131414,457.921438 0.306397306,457.717172 L3.52356902,454.5 L0.306397306,451.282828 C0.102131414,451.078562 0,450.830529 0,450.538721 C0,450.246912 0.102131414,449.998879 0.306397306,449.794613 L1.79461279,448.306397 C1.99887869,448.102131 2.24691212,448 2.53872054,448 C2.83052896,448 3.07856239,448.102131 3.28282828,448.306397 L6.5,451.523569 L9.71717172,448.306397 C9.92143761,448.102131 10.169471,448 10.4612795,448 C10.7530879,448 11.0011213,448.102131 11.2053872,448.306397 L12.6936027,449.794613 C12.8978686,449.998879 13,450.246912 13,450.538721 C13,450.830529 12.8978686,451.078562 12.6936027,451.282828 L9.47643098,454.5 L12.6936027,457.717172 C12.8978686,457.921438 13,458.169471 13,458.461279 Z" id="" fill="#333333"></path>
        <g id="Group-Copy-2" transform="translate(112.000000, 0.000000)">
            <g id="Rectangle-3-Copy">
                <use fill="black" fill-opacity="1" filter="url(#filter-2)" xlink:href="#path-1"></use>
                <use fill="#DBDBDB" fill-rule="evenodd" xlink:href="#path-1"></use>
            </g>
            <g id="arrow-up" transform="translate(11.000000, 10.000000)" stroke="#707070" stroke-linecap="round" stroke-linejoin="round" stroke-width="2">
                <path d="M5,12 L5,0" id="Shape"></path>
                <polyline id="Shape" points="0 5 5 0 10 5"></polyline>
            </g>
        </g>
        <path d="M14,412.2 L14,413.4 C14,413.562501 13.9422749,413.703124 13.8268229,413.821875 C13.711371,413.940626 13.5746536,414 13.4166667,414 L0.583333333,414 C0.425346432,414 0.288629049,413.940626 0.173177083,413.821875 C0.0577251172,413.703124 0,413.562501 0,413.4 L0,412.2 C0,412.037499 0.0577251172,411.896876 0.173177083,411.778125 C0.288629049,411.659374 0.425346432,411.6 0.583333333,411.6 L13.4166667,411.6 C13.5746536,411.6 13.711371,411.659374 13.8268229,411.778125 C13.9422749,411.896876 14,412.037499 14,412.2 Z M14,407.4 L14,408.6 C14,408.762501 13.9422749,408.903124 13.8268229,409.021875 C13.711371,409.140626 13.5746536,409.2 13.4166667,409.2 L0.583333333,409.2 C0.425346432,409.2 0.288629049,409.140626 0.173177083,409.021875 C0.0577251172,408.903124 0,408.762501 0,408.6 L0,407.4 C0,407.237499 0.0577251172,407.096876 0.173177083,406.978125 C0.288629049,406.859374 0.425346432,406.8 0.583333333,406.8 L13.4166667,406.8 C13.5746536,406.8 13.711371,406.859374 13.8268229,406.978125 C13.9422749,407.096876 14,407.237499 14,407.4 Z M14,402.6 L14,403.8 C14,403.962501 13.9422749,404.103124 13.8268229,404.221875 C13.711371,404.340626 13.5746536,404.4 13.4166667,404.4 L0.583333333,404.4 C0.425346432,404.4 0.288629049,404.340626 0.173177083,404.221875 C0.0577251172,404.103124 0,403.962501 0,403.8 L0,402.6 C0,402.437499 0.0577251172,402.296876 0.173177083,402.178125 C0.288629049,402.059374 0.425346432,402 0.583333333,402 L13.4166667,402 C13.5746536,402 13.711371,402.059374 13.8268229,402.178125 C13.9422749,402.296876 14,402.437499 14,402.6 Z" id="" fill="#333333"></path>
        <path d="M9.69230769,429.923077 C9.69230769,428.885411 9.32352132,427.9978 8.5859375,427.260216 C7.84835368,426.522633 6.96074237,426.153846 5.92307692,426.153846 C4.88541148,426.153846 3.99780016,426.522633 3.26021635,427.260216 C2.52263253,427.9978 2.15384615,428.885411 2.15384615,429.923077 C2.15384615,430.960742 2.52263253,431.848354 3.26021635,432.585938 C3.99780016,433.323521 4.88541148,433.692308 5.92307692,433.692308 C6.96074237,433.692308 7.84835368,433.323521 8.5859375,432.585938 C9.32352132,431.848354 9.69230769,430.960742 9.69230769,429.923077 Z M14,436.923077 C14,437.214745 13.8934306,437.467146 13.6802885,437.680288 C13.4671464,437.893431 13.214745,438 12.9230769,438 C12.6201908,438 12.3677895,437.893431 12.1658654,437.680288 L9.28004808,434.802885 C8.27603665,435.498401 7.15705745,435.846154 5.92307692,435.846154 C5.12098958,435.846154 4.35397001,435.690506 3.62199519,435.379207 C2.89002038,435.067907 2.25901707,434.647238 1.72896635,434.117188 C1.19891562,433.587137 0.778246749,432.956133 0.466947115,432.224159 C0.155647482,431.492184 0,430.725164 0,429.923077 C0,429.12099 0.155647482,428.35397 0.466947115,427.621995 C0.778246749,426.89002 1.19891562,426.259017 1.72896635,425.728966 C2.25901707,425.198916 2.89002038,424.778247 3.62199519,424.466947 C4.35397001,424.155647 5.12098958,424 5.92307692,424 C6.72516427,424 7.49218384,424.155647 8.22415865,424.466947 C8.95613347,424.778247 9.58713677,425.198916 10.1171875,425.728966 C10.6472382,426.259017 11.0679071,426.89002 11.3792067,427.621995 C11.6905064,428.35397 11.8461538,429.12099 11.8461538,429.923077 C11.8461538,431.157057 11.4984009,432.276037 10.8028846,433.280048 L13.6887019,436.165865 C13.896235,436.373398 14,436.6258 14,436.923077 Z" id="" fill="#333333"></path>
        <path d="M8.30769231,482 L8.30769231,486.153846 C8.30769231,486.730772 8.10577125,487.221152 7.70192308,487.625 C7.2980749,488.028848 6.80769519,488.230769 6.23076923,488.230769 L2.07692308,488.230769 C1.49999712,488.230769 1.0096174,488.028848 0.605769231,487.625 C0.201921058,487.221152 0,486.730772 0,486.153846 L0,478.538462 C0,477.788458 0.146032194,477.07272 0.438100962,476.391226 C0.73016973,475.709732 1.12499751,475.120195 1.62259615,474.622596 C2.1201948,474.124998 2.70973217,473.73017 3.39122596,473.438101 C4.07271975,473.146032 4.78845779,473 5.53846154,473 L6.23076923,473 C6.41827017,473 6.58052816,473.068509 6.71754808,473.205529 C6.85456799,473.342549 6.92307692,473.504807 6.92307692,473.692308 L6.92307692,475.076923 C6.92307692,475.264424 6.85456799,475.426682 6.71754808,475.563702 C6.58052816,475.700722 6.41827017,475.769231 6.23076923,475.769231 L5.53846154,475.769231 C4.77403464,475.769231 4.12139694,476.039661 3.58052885,476.580529 C3.03966076,477.121397 2.76923077,477.774035 2.76923077,478.538462 L2.76923077,478.884615 C2.76923077,479.173078 2.8701913,479.418268 3.07211538,479.620192 C3.27403947,479.822116 3.51922933,479.923077 3.80769231,479.923077 L6.23076923,479.923077 C6.80769519,479.923077 7.2980749,480.124998 7.70192308,480.528846 C8.10577125,480.932694 8.30769231,481.423074 8.30769231,482 Z M18,482 L18,486.153846 C18,486.730772 17.7980789,487.221152 17.3942308,487.625 C16.9903826,488.028848 16.5000029,488.230769 15.9230769,488.230769 L11.7692308,488.230769 C11.1923048,488.230769 10.7019251,488.028848 10.2980769,487.625 C9.89422875,487.221152 9.69230769,486.730772 9.69230769,486.153846 L9.69230769,478.538462 C9.69230769,477.788458 9.83833989,477.07272 10.1304087,476.391226 C10.4224774,475.709732 10.8173052,475.120195 11.3149038,474.622596 C11.8125025,474.124998 12.4020399,473.73017 13.0835337,473.438101 C13.7650274,473.146032 14.4807655,473 15.2307692,473 L15.9230769,473 C16.1105779,473 16.2728359,473.068509 16.4098558,473.205529 C16.5468757,473.342549 16.6153846,473.504807 16.6153846,473.692308 L16.6153846,475.076923 C16.6153846,475.264424 16.5468757,475.426682 16.4098558,475.563702 C16.2728359,475.700722 16.1105779,475.769231 15.9230769,475.769231 L15.2307692,475.769231 C14.4663423,475.769231 13.8137046,476.039661 13.2728365,476.580529 C12.7319684,477.121397 12.4615385,477.774035 12.4615385,478.538462 L12.4615385,478.884615 C12.4615385,479.173078 12.562499,479.418268 12.7644231,479.620192 C12.9663472,479.822116 13.211537,479.923077 13.5,479.923077 L15.9230769,479.923077 C16.5000029,479.923077 16.9903826,480.124998 17.3942308,480.528846 C17.7980789,480.932694 18,481.423074 18,482 Z" id="" fill="#EC1C23"></path>
    </g>
</svg>