<?xml version="1.0" encoding="UTF-8"?>
<svg width="500px" height="500px" viewBox="0 0 500 500" version="1.1" xmlns="http://www.w3.org/2000/svg" xmlns:xlink="http://www.w3.org/1999/xlink">
    <!-- Generator: Sketch 46.2 (44496) - http://www.bohemiancoding.com/sketch -->
    <title>Sprites Weather</title>
    <desc>Created with Sketch.</desc>
    <defs>
        <polygon id="path-1" points="80 0 80 64 40 64 0 64 0 1.1298205e-14"></polygon>
        <polygon id="path-3" points="10.26022 10 0.47002 10 0.47002 0.3836625 10.26022 0.3836625 10.26022 10"></polygon>
        <polygon id="path-5" points="10.26022 10 0.47002 10 0.47002 0.3836625 10.26022 0.3836625"></polygon>
        <polygon id="path-7" points="10.26022 10 0.47002 10 0.47002 0.3836625 10.26022 0.3836625"></polygon>
        <polygon id="path-9" points="10.26022 10 0.47002 10 0.47002 0.3836625 10.26022 0.3836625 10.26022 10"></polygon>
        <polygon id="path-11" points="72.0173077 0.999366756 72.0173077 57.6509377 0.000112243231 57.6509377 0.000112243231 0.999366756"></polygon>
        <polygon id="path-13" points="5.99925 5.91549296 0.00075 5.91549296 0.00075 0.00073943662 5.99925 0.00073943662"></polygon>
        <polygon id="path-15" points="5.99925 5.91549296 0.00075 5.91549296 0.00075 0.00073943662 5.99925 0.00073943662 5.99925 5.91549296"></polygon>
        <polygon id="path-17" points="5.99925 5.91549296 0.00075 5.91549296 0.00075 0.00073943662 5.99925 0.00073943662 5.99925 5.91549296"></polygon>
        <polygon id="path-19" points="5.99925 5.91549296 0.00075 5.91549296 0.00075 0.00073943662 5.99925 0.00073943662"></polygon>
        <polygon id="path-21" points="24 0 24 19 12 19 0 19 0 3.3541546e-15"></polygon>
        <polygon id="path-23" points="2.79824182 3 0.128187273 3 0.128187273 0.11509875 2.79824182 0.11509875 2.79824182 3"></polygon>
        <polygon id="path-25" points="3.73098909 3 0.170916364 3 0.170916364 0.11509875 3.73098909 0.11509875"></polygon>
        <polygon id="path-27" points="3.73098909 3 0.170916364 3 0.170916364 0.11509875 3.73098909 0.11509875"></polygon>
        <polygon id="path-29" points="2.79824182 3 0.128187273 3 0.128187273 0.11509875 2.79824182 0.11509875 2.79824182 3"></polygon>
        <polygon id="path-31" points="22.6903846 0.327378765 22.6903846 18.885652 3.53643056e-05 18.885652 3.53643056e-05 0.327378765"></polygon>
        <polygon id="path-33" points="1.71407143 1.71428571 0.000214285714 1.71428571 0.000214285714 0.000214285714 1.71407143 0.000214285714"></polygon>
        <polygon id="path-35" points="1.71407143 1.71428571 0.000214285714 1.71428571 0.000214285714 0.000214285714 1.71407143 0.000214285714 1.71407143 1.71428571"></polygon>
        <polygon id="path-37" points="1.71407143 1.71428571 0.000214285714 1.71428571 0.000214285714 0.000214285714 1.71407143 0.000214285714 1.71407143 1.71428571"></polygon>
        <polygon id="path-39" points="1.71407143 1.71428571 0.000214285714 1.71428571 0.000214285714 0.000214285714 1.71407143 0.000214285714"></polygon>
    </defs>
    <g id="Layout" stroke="none" stroke-width="1" fill="none" fill-rule="evenodd">
        <g id="Sprites-Weather">
            <g id="Page-1" fill="#231F20">
                <path d="M50.5,26.1875 C62.80375,26.1875 72.8125,36.19625 72.8125,48.5 C72.8125,60.80375 62.80375,70.8125 50.5,70.8125 C38.19625,70.8125 28.1875,60.80375 28.1875,48.5 C28.1875,36.19625 38.19625,26.1875 50.5,26.1875 M50.5,74 C64.5600625,74 76,62.5600625 76,48.5 C76,34.4399375 64.5600625,23 50.5,23 C36.4399375,23 25,34.4399375 25,48.5 C25,62.5600625 36.4399375,74 50.5,74" id="Fill-1"></path>
                <path d="M49,16 C50.104,16 51,15.2832 51,14.4 L51,1.6 C51,0.7168 50.104,0 49,0 C47.896,0 47,0.7168 47,1.6 L47,14.4 C47,15.2832 47.896,16 49,16" id="Fill-3"></path>
                <path d="M51,98.4 L51,85.6 C51,84.7168 50.104,84 49,84 C47.896,84 47,84.7168 47,85.6 L47,98.4 C47,99.2832 47.896,100 49,100 C50.104,100 51,99.2832 51,98.4" id="Fill-5"></path>
                <path d="M16,53 C16,51.896 15.2832,51 14.4,51 L1.6,51 C0.7168,51 0,51.896 0,53 C0,54.104 0.7168,55 1.6,55 L14.4,55 C15.2832,55 16,54.104 16,53" id="Fill-7"></path>
                <path d="M98.4,51 L85.6,51 C84.7168,51 84,51.896 84,53 C84,54.104 84.7168,55 85.6,55 L98.4,55 C99.2832,55 100,54.104 100,53 C100,51.896 99.2832,51 98.4,51" id="Fill-9"></path>
                <path d="M18.6744156,85.5423496 L27.5415959,76.6745902 C28.1528014,76.0633449 28.1528014,75.0728139 27.5415959,74.458434 C26.9272561,73.8471887 25.9367899,73.8471887 25.3255844,74.458434 L16.4584041,83.3261934 C15.8471986,83.9374388 15.8471986,84.9311043 16.4584041,85.5423496 C16.765574,85.8495396 17.1667755,86 17.5648426,86 C17.9660441,86 18.3672457,85.8495396 18.6744156,85.5423496" id="Fill-11"></path>
                <path d="M75.5676699,26 C75.9687928,26 76.3699158,25.846405 76.6770255,25.5423496 L85.5393354,16.6745902 C86.1535549,16.0633449 86.1535549,15.0696794 85.5393354,14.458434 C84.9282497,13.8471887 83.9348436,13.8471887 83.3237579,14.458434 L74.4583143,23.3230588 C73.8472286,23.9374388 73.8472286,24.9279697 74.4583143,25.5423496 C74.765424,25.846405 75.166547,26 75.5676699,26" id="Fill-13"></path>
                <path d="M76.6744156,74.458434 C76.0632101,73.8471887 75.0696095,73.8471887 74.4584041,74.458434 C73.8471986,75.0696794 73.8471986,76.0633449 74.4584041,76.6745902 L83.3255844,85.5423496 C83.62962,85.846405 84.0308215,86 84.432023,86 C84.8332245,86 85.234426,85.846405 85.5415959,85.5423496 C86.1528014,84.9279697 86.1528014,83.9374388 85.5415959,83.3261934 L76.6744156,74.458434 Z" id="Fill-15"></path>
                <path d="M25.3255844,25.5423496 C25.6327543,25.8495396 26.0339559,26 26.4351574,26 C26.8332245,26 27.234426,25.8495396 27.5415959,25.5423496 C28.1528014,24.9311043 28.1528014,23.9374388 27.5415959,23.3261934 L18.6744156,14.458434 C18.0632101,13.8471887 17.0727439,13.8471887 16.4584041,14.458434 C15.8471986,15.0728139 15.8471986,16.0633449 16.4584041,16.6745902 L25.3255844,25.5423496 Z" id="Fill-17"></path>
            </g>
            <path d="M155.9531,26 C159.441971,26 162.87182,26.7875 166,28.2885714 C159.664944,33.1485714 155.9531,40.5285714 155.9531,48.5 C155.9531,56.4714286 159.664944,63.8514286 166,68.7114286 C162.87182,70.2125 159.441971,71 155.9531,71 C143.299384,71 133,60.9071429 133,48.5 C133,36.0928571 143.299384,26 155.9531,26 M155.6,74 C160.4288,74 165.1488,72.6325625 169.2576,70.0443125 C169.7184,69.7510625 170,69.24425 170,68.696 C170,68.1509375 169.7184,67.6409375 169.2576,67.350875 C162.7104,63.22625 158.8,56.1786875 158.8,48.5 C158.8,40.8213125 162.7104,33.77375 169.2576,29.649125 C169.7184,29.3590625 170,28.8490625 170,28.304 C170,27.75575 169.7184,27.2489375 169.2576,26.9556875 C165.1488,24.3674375 160.4288,23 155.6,23 C141.4848,23 130,34.4399375 130,48.5 C130,62.5600625 141.4848,74 155.6,74" id="Page-1" fill="#231F20"></path>
            <g id="Page-1" transform="translate(310.000000, 18.000000)">
                <mask id="mask-2" fill="white">
                    <use xlink:href="#path-1"></use>
                </mask>
                <g id="Clip-2"></g>
                <path d="M62.8462447,60.819838 L25.4198694,60.819838 C17.8129586,60.819838 11.3849787,53.9793096 11.3849787,45.8826172 C11.3849787,37.7827446 17.8129586,30.9422162 25.4198694,30.9422162 C27.3847541,30.9422162 29.3246879,31.3778984 31.1866501,32.2397223 C31.6388854,32.4464328 32.1628547,32.4241717 32.6026146,32.1729389 C33.0361368,31.9217061 33.3261912,31.4701231 33.3792119,30.9644773 C34.1682846,23.7009874 40.1315537,18.2215683 47.2519216,18.2215683 C53.9106976,18.2215683 59.6961914,23.0490542 61.0061146,29.6987729 C61.1558201,30.4556514 61.7421666,30.958117 62.5811412,30.9740178 C62.6934203,30.9708377 62.8025806,30.958117 62.8462447,30.9422162 C70.4531554,30.9422162 76.8811354,37.7827446 76.8811354,45.8826172 C76.8811354,53.9793096 70.4531554,60.819838 62.8462447,60.819838 M7.7078373,32.8216919 C5.96127312,31.0408012 4.62016134,28.9037324 3.75623585,26.5504125 C9.80995205,27.1641838 15.7981721,25.008034 20.1614637,20.5589873 C24.5247553,16.1099407 26.6331077,10.0072099 26.0342857,3.83451549 C28.3422455,4.71224019 30.4412414,6.07970984 32.1878056,7.86060055 C35.0010215,10.7322868 36.6976838,14.4944184 37.1093739,18.5077829 C33.9156566,20.9342465 31.5453195,24.4515056 30.612779,28.6047972 C28.9192355,28.0450886 27.178909,27.7620542 25.4198694,27.7620542 C19.6967528,27.7620542 14.5256753,30.9135948 11.3912164,35.6202345 C10.0625801,34.8474551 8.80567764,33.941109 7.7078373,32.8216919 M63.7631909,27.7874955 C61.7047402,20.3300157 54.9586361,15.0414063 47.2519216,15.0414063 C44.6539074,15.0414063 42.2087176,15.6901593 39.9943237,16.7586938 C39.273866,12.5640601 37.3807152,8.65882121 34.3928429,5.61222603 C31.6700741,2.83594462 28.2299664,0.908766463 24.4467836,0.0405822422 C23.9228144,-0.0834440751 23.3801319,0.0819243479 23.0027493,0.466723948 C22.6253667,0.854703709 22.4663046,1.40805189 22.5817026,1.94231911 C23.8978635,7.89558233 22.1700125,14.0173941 17.9564264,18.3106128 C13.7428403,22.6038315 7.74838254,24.3720016 1.90363027,23.0299732 C1.37342329,22.9059469 0.833859713,23.0681351 0.456477095,23.4561149 C0.079094478,23.8409145 -0.0799676169,24.3974429 0.0385492381,24.9285299 C0.889999275,28.7860664 2.77691236,32.2937851 5.50280003,35.0700665 C6.80648543,36.3993742 8.29730271,37.4710888 9.87856707,38.3901556 C8.85557948,40.6894127 8.26611407,43.2240018 8.26611407,45.8826172 C8.26611407,55.7029574 16.122534,64 25.4198694,64 L62.8462447,64 C72.1435801,64 80,55.7029574 80,45.8826172 C80,36.3834734 72.6550739,28.3122223 63.7631909,27.7874955" id="Fill-1" fill="#231F20" mask="url(#mask-2)"></path>
            </g>
            <path d="M473.583333,47.0833333 L452.919833,47.0833333 L467.531333,32.4718333 C468.086667,31.9193333 468.086667,31.0211667 467.531333,30.4686667 C466.978833,29.9161667 466.080667,29.9161667 465.528167,30.4686667 L450.916667,45.0801667 L450.916667,24.4166667 C450.916667,23.6346667 450.282,23 449.5,23 C448.718,23 448.083333,23.6346667 448.083333,24.4166667 L448.083333,45.0801667 L433.471833,30.4686667 C432.9165,29.9161667 432.021167,29.9161667 431.468667,30.4686667 C430.913333,31.0211667 430.913333,31.9193333 431.468667,32.4718333 L446.080167,47.0833333 L425.416667,47.0833333 C424.634667,47.0833333 424,47.718 424,48.5 C424,49.282 424.634667,49.9166667 425.416667,49.9166667 L446.080167,49.9166667 L431.468667,64.5281667 C430.913333,65.0806667 430.913333,65.9788333 431.468667,66.5313333 C431.7435,66.809 432.106167,66.9478333 432.468833,66.9478333 C432.8315,66.9478333 433.194167,66.809 433.471833,66.5313333 L448.083333,51.9198333 L448.083333,72.5833333 C448.083333,73.3653333 448.718,74 449.5,74 C450.282,74 450.916667,73.3653333 450.916667,72.5833333 L450.916667,51.9198333 L465.528167,66.5313333 C465.805833,66.809 466.1685,66.9478333 466.531167,66.9478333 C466.893833,66.9478333 467.2565,66.809 467.531333,66.5313333 C468.086667,65.9788333 468.086667,65.0806667 467.531333,64.5281667 L452.919833,49.9166667 L473.583333,49.9166667 C474.365333,49.9166667 475,49.282 475,48.5 C475,47.718 474.365333,47.0833333 473.583333,47.0833333" id="Page-1" fill="#231F20"></path>
            <g id="Page-1" transform="translate(210.000000, 14.000000)" fill="#231F20">
                <path d="M54.1772152,9.12676056 C55.0156962,9.12676056 55.6962025,8.44529577 55.6962025,7.6056338 L55.6962025,1.52112676 C55.6962025,0.681464789 55.0156962,0 54.1772152,0 C53.3387342,0 52.6582278,0.681464789 52.6582278,1.52112676 L52.6582278,7.6056338 C52.6582278,8.44529577 53.3387342,9.12676056 54.1772152,9.12676056" id="Fill-1"></path>
                <path d="M3.02629574,54.7499753 C3.02629574,47.0568187 9.26349126,40.5552154 16.6446266,40.5552154 C18.5511929,40.5552154 20.4335488,40.9768419 22.2402474,41.8017634 C22.6790603,42.0034108 23.1905043,41.9789687 23.6141857,41.7376028 C24.0348408,41.4962369 24.3162863,41.0623893 24.3677333,40.5766022 C25.1333861,33.5983775 30.9196636,28.3341564 37.8286967,28.3341564 C44.2898381,28.3341564 49.9036167,32.9720483 51.174661,39.3606068 C51.3168969,40.0755388 51.9403138,40.585768 52.6575459,40.585768 C52.7664925,40.585768 52.9026758,40.5704917 52.9601754,40.5552154 C60.3413107,40.5552154 66.5785063,47.0568187 66.5785063,54.7499753 C66.5785063,62.4461872 60.3413107,68.9447353 52.9601754,68.9447353 L16.6446266,68.9447353 C9.26349126,68.9447353 3.02629574,62.4461872 3.02629574,54.7499753 L3.02629574,54.7499753 Z M54.3038507,16.2383633 C62.3386659,16.2383633 68.8724384,22.8346799 68.8724384,30.9433525 C68.8724384,35.1993363 67.0627136,39.1803462 63.9093134,41.9789687 C61.1614369,39.4369885 57.6751442,37.7474271 53.8499064,37.527448 C52.1218915,31.3283159 46.9862677,26.7057003 40.7944666,25.5660866 C42.9673469,20.0299469 48.329943,16.2383633 54.3038507,16.2383633 L54.3038507,16.2383633 Z M52.9601754,72 C61.981563,72 69.604802,64.1021407 69.604802,54.7499753 C69.604802,50.8086838 68.1945482,47.1698635 65.952063,44.2276436 C69.7288801,40.851576 71.8987342,36.0639762 71.8987342,30.9433525 C71.8987342,21.1481738 64.0061549,13.1830986 54.3038507,13.1830986 C46.7865321,13.1830986 40.0469715,18.1448485 37.6592242,25.294168 C29.9300649,25.3766601 23.3781346,30.8150314 21.683409,38.312651 C20.0401304,37.7718692 18.3514574,37.4999506 16.6446266,37.4999506 C7.62323897,37.4999506 0,45.4008652 0,54.7499753 C0,64.1021407 7.62323897,72 16.6446266,72 L52.9601754,72 Z" id="Fill-3"></path>
                <path d="M34.9633412,15.7958921 C35.2510544,16.0841598 35.6268431,16.2253521 36.0026318,16.2253521 C36.3754846,16.2253521 36.7512733,16.0841598 37.0389865,15.7958921 C37.6114771,15.2222983 37.6114771,14.2898406 37.0389865,13.7162467 L32.8847601,9.55695595 C32.3122695,8.9833621 31.3845412,8.9833621 30.8091148,9.55695595 C30.2366242,10.1305498 30.2366242,11.0630075 30.8091148,11.6366013 L34.9633412,15.7958921 Z" id="Fill-5"></path>
                <path d="M73.3673927,16.2253521 C73.7431814,16.2253521 74.11897,16.081278 74.4066833,15.79607 L78.5579738,11.6355617 C79.1304644,11.0622055 79.1304644,10.1330743 78.5579738,9.55677776 C77.9854833,8.9834215 77.0548191,8.9834215 76.4823285,9.55677776 L72.3281021,13.7143457 C71.7556115,14.2906423 71.7556115,15.2197734 72.3281021,15.79607 C72.6158153,16.081278 72.991604,16.2253521 73.3673927,16.2253521" id="Fill-7"></path>
                <path d="M73.3409382,48.142604 L77.4939489,52.3031122 C77.7817813,52.5883202 78.1577257,52.7323944 78.53367,52.7323944 C78.9096144,52.7323944 79.2855588,52.5883202 79.5704542,52.3031122 C80.1431819,51.7268157 80.1431819,50.7976845 79.5704542,50.2243283 L75.4174435,46.06382 C74.8447158,45.4904638 73.913666,45.4904638 73.3409382,46.06382 C72.7682105,46.6371763 72.7682105,47.5692477 73.3409382,48.142604" id="Fill-9"></path>
            </g>
            <g id="Page-1" transform="translate(17.000000, 116.000000)">
                <g id="Group-3" transform="translate(5.000000, 58.000000)">
                    <mask id="mask-4" fill="white">
                        <use xlink:href="#path-3"></use>
                    </mask>
                    <g id="Clip-2"></g>
                    <path d="M7.87112,0.78585 L0.87952,7.6526 C0.33352,8.18885 0.33352,9.0606 0.87952,9.59685 C1.15392,9.86635 1.51232,10.0011 1.86792,10.0011 C2.22632,10.0011 2.58472,9.86635 2.85912,9.59685 L9.85072,2.7301 C10.39672,2.19385 10.39672,1.3221 9.85072,0.78585 C9.30472,0.2496 8.41712,0.2496 7.87112,0.78585" id="Fill-1" fill="#231F20" mask="url(#mask-4)"></path>
                </g>
                <g id="Group-6" transform="translate(16.000000, 58.000000)">
                    <mask id="mask-6" fill="white">
                        <use xlink:href="#path-5"></use>
                    </mask>
                    <g id="Clip-5"></g>
                    <path d="M7.87112,0.78585 L0.87952,7.6526 C0.33352,8.18885 0.33352,9.0606 0.87952,9.59685 C1.15392,9.86635 1.51232,10.0011 1.86792,10.0011 C2.22632,10.0011 2.58472,9.86635 2.85912,9.59685 L9.85072,2.7301 C10.39672,2.19385 10.39672,1.3221 9.85072,0.78585 C9.30472,0.2496 8.41712,0.2496 7.87112,0.78585" id="Fill-4" fill="#231F20" mask="url(#mask-6)"></path>
                </g>
                <g id="Group-9" transform="translate(27.000000, 58.000000)">
                    <mask id="mask-8" fill="white">
                        <use xlink:href="#path-7"></use>
                    </mask>
                    <g id="Clip-8"></g>
                    <path d="M7.87112,0.78585 L0.87952,7.6526 C0.33352,8.18885 0.33352,9.0606 0.87952,9.59685 C1.15392,9.86635 1.51232,10.0011 1.86792,10.0011 C2.22632,10.0011 2.58472,9.86635 2.85912,9.59685 L9.85072,2.7301 C10.39672,2.19385 10.39672,1.3221 9.85072,0.78585 C9.30472,0.2496 8.41712,0.2496 7.87112,0.78585" id="Fill-7" fill="#231F20" mask="url(#mask-8)"></path>
                </g>
                <g id="Group-12" transform="translate(38.000000, 58.000000)">
                    <mask id="mask-10" fill="white">
                        <use xlink:href="#path-9"></use>
                    </mask>
                    <g id="Clip-11"></g>
                    <path d="M7.87112,0.78585 L0.87952,7.6526 C0.33352,8.18885 0.33352,9.0606 0.87952,9.59685 C1.15392,9.86635 1.51232,10.0011 1.86792,10.0011 C2.22632,10.0011 2.58472,9.86635 2.85912,9.59685 L9.85072,2.7301 C10.39672,2.19385 10.39672,1.3221 9.85072,0.78585 C9.30472,0.2496 8.41712,0.2496 7.87112,0.78585" id="Fill-10" fill="#231F20" mask="url(#mask-10)"></path>
                </g>
                <path d="M15.2790639,24.9910536 C17.0292112,24.9910536 18.7571344,25.3731712 20.4156074,26.129039 C20.815641,26.3131249 21.287903,26.2908115 21.6740466,26.0704663 C22.0601903,25.850121 22.3185453,25.4568466 22.3685495,25.0105778 C23.0686085,18.6400905 28.3829447,13.8343332 34.7251452,13.8343332 C40.6562,13.8343332 45.8066336,18.0683086 46.9733984,23.897695 C47.103965,24.5503631 47.6734574,25.0189454 48.3346241,25.0189454 C48.4429666,25.0217346 48.5624211,25.0049995 48.6152033,24.9910536 C55.5074501,24.9910536 61.1162556,30.6475108 61.1162556,37.6009367 C61.1162556,44.5515735 55.5074501,50.2108199 48.6152033,50.2108199 L15.2790639,50.2108199 C8.38403906,50.2108199 2.77801162,44.5515735 2.77801162,37.6009367 C2.77801162,30.6475108 8.38403906,24.9910536 15.2790639,24.9910536 M49.8486405,2.78918009 C57.2242613,2.78918009 63.2219884,8.81380907 63.2219884,16.216293 C63.2219884,20.0542048 61.5968516,23.6438796 58.7716138,26.190401 C56.2519572,23.9116409 53.0239077,22.4138512 49.4291607,22.2241869 C47.8429161,16.5649405 43.1286304,12.3449111 37.4448186,11.3073361 C39.4394309,6.25334175 44.3648455,2.78918009 49.8486405,2.78918009 M15.2790639,53 L48.6152033,53 C57.0381345,53 63.8942672,46.0912009 63.8942672,37.6009367 C63.8942672,34.0614672 62.652496,30.837175 60.6523276,28.23487 C64.0498358,25.1611936 66,20.8379644 66,16.216293 C66,7.27418167 58.7521677,0 49.8486405,0 C42.9480596,0 36.7586497,4.52962846 34.5695766,11.059099 C27.4745349,11.1316177 21.4601397,16.0991475 19.9016752,22.9410062 C18.3959929,22.4501105 16.8458624,22.2018735 15.2790639,22.2018735 C6.85613267,22.2018735 0,29.1106726 0,37.6009367 C0,46.0912009 6.85613267,53 15.2790639,53" id="Fill-13" fill="#231F20"></path>
            </g>
            <g id="Page-1" transform="translate(114.000000, 114.000000)">
                <g id="Group-3">
                    <mask id="mask-12" fill="white">
                        <use xlink:href="#path-11"></use>
                    </mask>
                    <g id="Clip-2"></g>
                    <path d="M56.5761231,54.8359194 L22.8838154,54.8359194 C16.0358538,54.8359194 10.2492,48.780815 10.2492,41.6137784 C10.2492,34.4439267 16.0358538,28.3888223 22.8838154,28.3888223 C24.6526615,28.3888223 26.3990462,28.7744799 28.0752385,29.5373498 C28.4823538,29.720326 28.9540462,29.7006209 29.3499308,29.4782344 C29.7402,29.255848 30.0013154,28.8561154 30.0490462,28.4085275 C30.7593923,21.9790256 36.1277,17.1287491 42.5376615,17.1287491 C48.5320846,17.1287491 53.7403538,21.4019469 54.9195846,27.2881502 C55.0543538,27.9581245 55.5822,28.4028974 56.3374692,28.4169725 C56.4385462,28.4141575 56.5368154,28.4028974 56.5761231,28.3888223 C63.4240846,28.3888223 69.2107385,34.4439267 69.2107385,41.6137784 C69.2107385,48.780815 63.4240846,54.8359194 56.5761231,54.8359194 M6.93893077,30.0524982 C5.36662308,28.4760879 4.15931538,26.5843956 3.38158462,24.5012821 C8.83131538,25.0445806 14.2220846,23.1359982 18.1500462,19.1977875 C22.0780077,15.2595769 23.9760077,9.85755678 23.4369308,4.39360623 C25.5146231,5.17055128 27.4042,6.38100916 28.9765077,7.95741941 C31.5090462,10.499381 33.0364308,13.8295476 33.4070462,17.3821007 C30.5319692,19.5299597 28.3981231,22.64337 27.5586231,26.3197839 C26.0340462,25.8243407 24.4673538,25.573804 22.8838154,25.573804 C17.7317,25.573804 13.0765462,28.3634872 10.2548154,32.5297143 C9.05873846,31.8428498 7.92723846,31.0433846 6.93893077,30.0524982 M57.4015846,25.5963242 C55.5485077,18.9951062 49.4754692,14.3137308 42.5376615,14.3137308 C40.1988538,14.3137308 37.9976231,14.8879945 36.0041615,15.8338407 C35.3555846,12.1208315 33.6513154,8.66398901 30.9615462,5.96720147 C28.5104308,3.50969048 25.4135462,1.80378938 22.0078154,1.03528938 C21.5361231,0.925503663 21.0475846,1.07188462 20.7078538,1.41250183 C20.3681231,1.75593407 20.2249308,2.24574725 20.3288154,2.71867033 C21.5136615,7.98838462 19.9582,13.4072949 16.1650077,17.2075696 C12.3718154,21.0078443 6.97543077,22.5729945 1.71381538,21.3850568 C1.23650769,21.2752711 0.750776923,21.418837 0.411046154,21.7622692 C0.0713153846,22.1028864 -0.0718769231,22.5955147 0.0348153846,23.0656227 C0.801315385,26.4802399 2.49996923,29.5852051 4.95389231,32.0427161 C6.12750769,33.2193938 7.46958462,34.1680549 8.89308462,34.9815952 C7.97216154,37.0168535 7.44150769,39.2604231 7.44150769,41.6137784 C7.44150769,50.3065549 14.5140846,57.6509377 22.8838154,57.6509377 L56.5761231,57.6509377 C64.9458538,57.6509377 72.0184308,50.3065549 72.0184308,41.6137784 C72.0184308,33.2053187 65.4063154,26.0608022 57.4015846,25.5963242" id="Fill-1" fill="#231F20" mask="url(#mask-12)"></path>
                </g>
                <path d="M10.4402974,71.5824097 L17.5817246,64.4404719 C18.1394251,63.8827315 18.1394251,62.978906 17.5817246,62.4183053 C17.024024,61.8605649 16.1174031,61.8605649 15.5597026,62.4183053 L8.41827542,69.5602431 C7.86057486,70.1179836 7.86057486,71.0246693 8.41827542,71.5824097 C8.6985557,71.86271 9.06463606,72 9.42785643,72 C9.79393679,72 10.1600172,71.86271 10.4402974,71.5824097" id="Fill-4" fill="#231F20"></path>
                <path d="M21.4402974,71.5824097 L28.5817246,64.4404719 C29.1394251,63.8827315 29.1394251,62.978906 28.5817246,62.4183053 C28.024024,61.8605649 27.1174031,61.8605649 26.5597026,62.4183053 L19.4182754,69.5602431 C18.8605749,70.1179836 18.8605749,71.0246693 19.4182754,71.5824097 C19.6985557,71.86271 20.0646361,72 20.4278564,72 C20.7939368,72 21.1600172,71.86271 21.4402974,71.5824097" id="Fill-6" fill="#231F20"></path>
                <path d="M32.4402974,71.5824097 L39.5817246,64.4404719 C40.1394251,63.8827315 40.1394251,62.978906 39.5817246,62.4183053 C39.024024,61.8605649 38.1174031,61.8605649 37.5597026,62.4183053 L30.4182754,69.5602431 C29.8605749,70.1179836 29.8605749,71.0246693 30.4182754,71.5824097 C30.6985557,71.86271 31.0646361,72 31.4278564,72 C31.7939368,72 32.1600172,71.86271 32.4402974,71.5824097" id="Fill-8" fill="#231F20"></path>
                <path d="M44.4402974,71.5824097 L51.5817246,64.4404719 C52.1394251,63.8827315 52.1394251,62.978906 51.5817246,62.4183053 C51.024024,61.8605649 50.1174031,61.8605649 49.5597026,62.4183053 L42.4182754,69.5602431 C41.8605749,70.1179836 41.8605749,71.0246693 42.4182754,71.5824097 C42.6985557,71.86271 43.0646361,72 43.4278564,72 C43.7939368,72 44.1600172,71.86271 44.4402974,71.5824097" id="Fill-10" fill="#231F20"></path>
            </g>
            <g id="Page-1" transform="translate(213.000000, 120.000000)" fill="#231F20">
                <path d="M10.75,30 C11.716,30 12.5,29.2094118 12.5,28.2352941 C12.5,14.6117647 23.49,3.52941176 37,3.52941176 C50.5065,3.52941176 61.5,14.6117647 61.5,28.2352941 C61.5,29.2094118 62.284,30 63.25,30 C64.216,30 65,29.2094118 65,28.2352941 C65,12.6670588 52.4385,0 37,0 C21.5615,0 9,12.6670588 9,28.2352941 C9,29.2094118 9.784,30 10.75,30" id="Fill-1"></path>
                <path d="M55.4226562,52.9537079 C56.1434554,52.3236067 56.1961968,51.2531123 55.5422034,50.5586461 C54.8917261,49.870955 53.7771244,49.8201404 53.0598413,50.4468539 C48.5205644,54.4239438 42.6416558,56.6123595 36.5025563,56.6123595 C30.3599407,56.6123595 24.477516,54.4205562 19.9417552,50.4400786 C19.2279882,49.8133652 18.1133865,49.8607921 17.4593931,50.5518708 C16.8053997,51.2463371 16.854625,52.3134438 17.5754242,52.9469326 C22.7581463,57.4931461 29.4809173,60 36.5025563,60 C43.5171631,60 50.2364181,57.4965337 55.4226562,52.9537079" id="Fill-3"></path>
                <path d="M1.76190476,39 L72.2380952,39 C73.2106667,39 74,38.104 74,37 C74,35.896 73.2106667,35 72.2380952,35 L1.76190476,35 C0.789333333,35 0,35.896 0,37 C0,38.104 0.789333333,39 1.76190476,39" id="Fill-5"></path>
                <path d="M62.2333333,42 L12.7666667,42 C11.7914667,42 11,42.896 11,44 C11,45.104 11.7914667,46 12.7666667,46 L62.2333333,46 C63.2085333,46 64,45.104 64,44 C64,42.896 63.2085333,42 62.2333333,42" id="Fill-7"></path>
            </g>
            <g id="Page-1" transform="translate(313.000000, 115.000000)">
                <path d="M7.04347826,29.1481145 C7.04347826,21.4500227 13.316087,14.947751 20.7391304,14.947751 C22.6565217,14.947751 24.5495652,15.3573194 26.3665217,16.1674875 C26.8108696,16.3618083 27.3252174,16.3408814 27.7482609,16.104707 C28.1713043,15.8685325 28.4543478,15.4470059 28.506087,14.9686779 C29.276087,8.14054521 35.0952174,2.9895502 42.0434783,2.9895502 C48.5413043,2.9895502 54.1869565,7.52768741 55.4652174,13.7788369 C55.6082609,14.4903498 56.1317391,14.9626988 56.9991304,14.9776465 C57.1117391,14.974657 57.2182609,14.9626988 57.2608696,14.947751 C64.683913,14.947751 70.9565217,21.4500227 70.9565217,29.1481145 C70.9565217,36.8462063 64.683913,43.348478 57.2608696,43.348478 L20.7391304,43.348478 C13.316087,43.348478 7.04347826,36.8462063 7.04347826,29.1481145 M74,29.1481145 C74,20.1376102 66.8326087,12.4783826 58.1526087,11.9821172 C56.143913,4.97162199 49.5608696,0 42.0434783,0 C34.1943478,0 27.526087,5.36325307 25.8065217,12.7504316 C24.153913,12.2242708 22.4556522,11.9582008 20.7391304,11.9582008 C11.6665217,11.9582008 4,19.8296865 4,29.1481145 C4,38.4665425 11.6665217,46.3380282 20.7391304,46.3380282 L57.2608696,46.3380282 C66.3334783,46.3380282 74,38.4665425 74,29.1481145" id="Fill-1" fill="#231F20"></path>
                <path d="M17.539897,51.721131 C16.9264264,51.1164305 15.9291434,51.1164305 15.3156728,51.721131 L7.46010296,59.4643981 C6.84663235,60.0690986 6.84663235,61.0521245 7.46010296,61.6568249 C7.76841127,61.9607257 8.16795367,62.1126761 8.57064207,62.1126761 C8.97333047,62.1126761 9.37601888,61.9607257 9.68432718,61.6568249 L17.539897,53.9135578 C18.1533677,53.3088574 18.1533677,52.3258315 17.539897,51.721131" id="Fill-3" fill="#231F20"></path>
                <path d="M30.539897,51.721131 C29.9264264,51.1164305 28.9291434,51.1164305 28.3156728,51.721131 L20.460103,59.4643981 C19.8466323,60.0690986 19.8466323,61.0521245 20.460103,61.6568249 C20.7684113,61.9607257 21.1679537,62.1126761 21.5706421,62.1126761 C21.9733305,62.1126761 22.3760189,61.9607257 22.6843272,61.6568249 L30.539897,53.9135578 C31.1533677,53.3088574 31.1533677,52.3258315 30.539897,51.721131" id="Fill-5" fill="#231F20"></path>
                <path d="M42.539897,51.721131 C41.9264264,51.1164305 40.9291434,51.1164305 40.3156728,51.721131 L32.460103,59.4643981 C31.8466323,60.0690986 31.8466323,61.0521245 32.460103,61.6568249 C32.7684113,61.9607257 33.1679537,62.1126761 33.5706421,62.1126761 C33.9733305,62.1126761 34.3760189,61.9607257 34.6843272,61.6568249 L42.539897,53.9135578 C43.1533677,53.3088574 43.1533677,52.3258315 42.539897,51.721131" id="Fill-7" fill="#231F20"></path>
                <path d="M52.3156728,51.721131 L44.460103,59.4643981 C43.8466323,60.0690986 43.8466323,61.0521245 44.460103,61.6568249 C44.7684113,61.9607257 45.1710997,62.1126761 45.5706421,62.1126761 C45.9733305,62.1126761 46.3760189,61.9607257 46.6843272,61.6568249 L54.539897,53.9135578 C55.1533677,53.3088574 55.1533677,52.3258315 54.539897,51.721131 C53.9264264,51.1164305 52.9291434,51.1164305 52.3156728,51.721131" id="Fill-9" fill="#231F20"></path>
                <g id="Group-13" transform="translate(37.000000, 63.098592)">
                    <mask id="mask-14" fill="white">
                        <use xlink:href="#path-13"></use>
                    </mask>
                    <g id="Clip-12"></g>
                    <path d="M3.4395,0.433309859 L0.4395,3.39105634 C-0.1455,3.9678169 -0.1455,4.90542254 0.4395,5.4821831 C0.7335,5.77204225 1.1175,5.91697183 1.5015,5.91697183 C1.8825,5.91697183 2.2665,5.77204225 2.5605,5.4821831 L5.5605,2.52443662 C6.1455,1.94767606 6.1455,1.01007042 5.5605,0.433309859 C4.9755,-0.143450704 4.0245,-0.143450704 3.4395,0.433309859" id="Fill-11" fill="#231F20" mask="url(#mask-14)"></path>
                </g>
                <g id="Group-16" transform="translate(24.000000, 63.098592)">
                    <mask id="mask-16" fill="white">
                        <use xlink:href="#path-15"></use>
                    </mask>
                    <g id="Clip-15"></g>
                    <path d="M3.4395,0.433309859 L0.4395,3.39105634 C-0.1455,3.9678169 -0.1455,4.90542254 0.4395,5.4821831 C0.7335,5.77204225 1.1175,5.91697183 1.5015,5.91697183 C1.8825,5.91697183 2.2665,5.77204225 2.5605,5.4821831 L5.5605,2.52443662 C6.1455,1.94767606 6.1455,1.01007042 5.5605,0.433309859 C4.9755,-0.143450704 4.0245,-0.143450704 3.4395,0.433309859" id="Fill-14" fill="#231F20" mask="url(#mask-16)"></path>
                </g>
                <g id="Group-19" transform="translate(12.000000, 63.098592)">
                    <mask id="mask-18" fill="white">
                        <use xlink:href="#path-17"></use>
                    </mask>
                    <g id="Clip-18"></g>
                    <path d="M3.4395,0.433309859 L0.4395,3.39105634 C-0.1455,3.9678169 -0.1455,4.90542254 0.4395,5.4821831 C0.7335,5.77204225 1.1175,5.91697183 1.5015,5.91697183 C1.8825,5.91697183 2.2665,5.77204225 2.5605,5.4821831 L5.5605,2.52443662 C6.1455,1.94767606 6.1455,1.01007042 5.5605,0.433309859 C4.9755,-0.143450704 4.0245,-0.143450704 3.4395,0.433309859" id="Fill-17" fill="#231F20" mask="url(#mask-18)"></path>
                </g>
                <g id="Group-22" transform="translate(0.000000, 63.098592)">
                    <mask id="mask-20" fill="white">
                        <use xlink:href="#path-19"></use>
                    </mask>
                    <g id="Clip-21"></g>
                    <path d="M3.4395,0.433309859 L0.4395,3.39105634 C-0.1455,3.9678169 -0.1455,4.90542254 0.4395,5.4821831 C0.7335,5.77204225 1.1175,5.91697183 1.5015,5.91697183 C1.8825,5.91697183 2.2665,5.77204225 2.5605,5.4821831 L5.5605,2.52443662 C6.1455,1.94767606 6.1455,1.01007042 5.5605,0.433309859 C4.9755,-0.143450704 4.0245,-0.143450704 3.4395,0.433309859" id="Fill-20" fill="#231F20" mask="url(#mask-20)"></path>
                </g>
            </g>
            <g id="Page-1" transform="translate(415.000000, 115.000000)" fill="#231F20">
                <path d="M16.7391304,15.2954292 C18.6565217,15.2954292 20.5495652,15.714524 22.3695652,16.5435362 C22.8108696,16.748495 23.3221739,16.7209632 23.7513043,16.4792954 C24.1713043,16.2345686 24.4543478,15.8032375 24.5091304,15.3168428 C25.276087,8.32989075 31.0921739,3.05908584 38.0434783,3.05908584 C44.5413043,3.05908584 50.183913,7.70277815 51.4652174,14.0993266 C51.6113043,14.8273891 52.2930435,15.3199019 53.0021739,15.3260201 C53.1117391,15.322961 53.2182609,15.3107246 53.2608696,15.2954292 C60.9730435,15.2954292 66.9565217,23.7232107 66.9565217,30.9732441 C66.9565217,38.2232776 60.9730435,46.6510591 53.2608696,46.6510591 L16.7391304,46.6510591 C9.02695652,46.6510591 3.04347826,38.2232776 3.04347826,30.9732441 C3.04347826,23.7232107 9.02695652,15.2954292 16.7391304,15.2954292 M16.7391304,49.7101449 L53.2608696,49.7101449 C62.8386957,49.7101449 70,39.8170613 70,30.9732441 C70,22.4047447 63.2830435,12.8573378 54.1556522,12.2638751 C52.1469565,5.08725975 45.563913,0 38.0434783,0 C30.1943478,0 23.5230435,5.488 21.8065217,13.0470011 C20.153913,12.508602 18.4556522,12.2363434 16.7391304,12.2363434 C7.15826087,12.2363434 0,22.129427 0,30.9732441 C0,39.8170613 7.15826087,49.7101449 16.7391304,49.7101449" id="Fill-1"></path>
                <path d="M20,56.3043478 L20,68.4782609 C20,69.3182609 20.672,70 21.5,70 C22.328,70 23,69.3182609 23,68.4782609 L23,56.3043478 C23,55.4643478 22.328,54.7826087 21.5,54.7826087 C20.672,54.7826087 20,55.4643478 20,56.3043478" id="Fill-3"></path>
                <path d="M39,56.3043478 L39,68.4782609 C39,69.3182609 39.672,70 40.5,70 C41.328,70 42,69.3182609 42,68.4782609 L42,56.3043478 C42,55.4643478 41.328,54.7826087 40.5,54.7826087 C39.672,54.7826087 39,55.4643478 39,56.3043478" id="Fill-5"></path>
                <path d="M28,56.1352657 L28,61.5458937 C28,62.2925604 28.672,62.8985507 29.5,62.8985507 C30.328,62.8985507 31,62.2925604 31,61.5458937 L31,56.1352657 C31,55.388599 30.328,54.7826087 29.5,54.7826087 C28.672,54.7826087 28,55.388599 28,56.1352657" id="Fill-7"></path>
                <path d="M47,56.1352657 L47,61.5458937 C47,62.2925604 47.672,62.8985507 48.5,62.8985507 C49.328,62.8985507 50,62.2925604 50,61.5458937 L50,56.1352657 C50,55.388599 49.328,54.7826087 48.5,54.7826087 C47.672,54.7826087 47,55.388599 47,56.1352657" id="Fill-9"></path>
            </g>
            <g id="Page-1-Copy-10" transform="translate(0.000000, 200.000000)" fill="#231F20">
                <path d="M16,8 C19.86,8 23,11.14 23,15 C23,18.86 19.86,22 16,22 C12.14,22 9,18.86 9,15 C9,11.14 12.14,8 16,8 M16,23 C20.411,23 24,19.411 24,15 C24,10.589 20.411,7 16,7 C11.589,7 8,10.589 8,15 C8,19.411 11.589,23 16,23" id="Fill-1"></path>
                <path d="M15.5,5 C15.776,5 16,4.776 16,4.5 L16,0.5 C16,0.224 15.776,0 15.5,0 C15.224,0 15,0.224 15,0.5 L15,4.5 C15,4.776 15.224,5 15.5,5" id="Fill-3"></path>
                <path d="M16,31.5 L16,27.5 C16,27.224 15.776,27 15.5,27 C15.224,27 15,27.224 15,27.5 L15,31.5 C15,31.776 15.224,32 15.5,32 C15.776,32 16,31.776 16,31.5" id="Fill-5"></path>
                <path d="M5,16.5 C5,16.224 4.776,16 4.5,16 L0.5,16 C0.224,16 0,16.224 0,16.5 C0,16.776 0.224,17 0.5,17 L4.5,17 C4.776,17 5,16.776 5,16.5" id="Fill-7"></path>
                <path d="M31.5,16 L27.5,16 C27.224,16 27,16.224 27,16.5 C27,16.776 27.224,17 27.5,17 L31.5,17 C31.776,17 32,16.776 32,16.5 C32,16.224 31.776,16 31.5,16" id="Fill-9"></path>
                <path d="M5.89147186,27.8474499 L8.84719864,24.8915301 C9.05093379,24.6877816 9.05093379,24.3576046 8.84719864,24.1528113 C8.6424187,23.9490629 8.31226329,23.9490629 8.10852814,24.1528113 L5.15280136,27.1087311 C4.94906621,27.3124796 4.94906621,27.6437014 5.15280136,27.8474499 C5.25519133,27.9498465 5.38892517,28 5.52161421,28 C5.65534805,28 5.78908189,27.9498465 5.89147186,27.8474499" id="Fill-11"></path>
                <path d="M24.5225566,8 C24.6562643,8 24.7899719,7.94880167 24.8923418,7.84744988 L27.8464451,4.89153007 C28.051185,4.68778162 28.051185,4.35655979 27.8464451,4.15281134 C27.6427499,3.94906289 27.3116145,3.94906289 27.1079193,4.15281134 L24.1527714,7.10768628 C23.9490762,7.31247959 23.9490762,7.64265657 24.1527714,7.84744988 C24.2551413,7.94880167 24.388849,8 24.5225566,8" id="Fill-13"></path>
                <path d="M24.8914719,24.1528113 C24.6877367,23.9490629 24.3565365,23.9490629 24.1528014,24.1528113 C23.9490662,24.3565598 23.9490662,24.6877816 24.1528014,24.8915301 L27.1085281,27.8474499 C27.2098733,27.9488017 27.3436072,28 27.477341,28 C27.6110748,28 27.7448087,27.9488017 27.8471986,27.8474499 C28.0509338,27.6426566 28.0509338,27.3124796 27.8471986,27.1087311 L24.8914719,24.1528113 Z" id="Fill-15"></path>
                <path d="M8.10852814,7.84744988 C8.21091811,7.94984654 8.34465195,8 8.47838579,8 C8.61107483,8 8.74480867,7.94984654 8.84719864,7.84744988 C9.05093379,7.64370143 9.05093379,7.31247959 8.84719864,7.10873114 L5.89147186,4.15281134 C5.68773671,3.94906289 5.3575813,3.94906289 5.15280136,4.15281134 C4.94906621,4.35760465 4.94906621,4.68778162 5.15280136,4.89153007 L8.10852814,7.84744988 Z" id="Fill-17"></path>
            </g>
            <path d="M117.955485,210 C119.012719,210 120.052067,210.2275 121,210.661143 C119.080286,212.065143 117.955485,214.197143 117.955485,216.5 C117.955485,218.802857 119.080286,220.934857 121,222.338857 C120.052067,222.7725 119.012719,223 117.955485,223 C114.121025,223 111,220.084286 111,216.5 C111,212.915714 114.121025,210 117.955485,210 M117.68,224 C119.12864,224 120.54464,223.597813 121.77728,222.836563 C121.91552,222.750313 122,222.60125 122,222.44 C122,222.279687 121.91552,222.129687 121.77728,222.044375 C119.81312,220.83125 118.64,218.758438 118.64,216.5 C118.64,214.241562 119.81312,212.16875 121.77728,210.955625 C121.91552,210.870313 122,210.720313 122,210.56 C122,210.39875 121.91552,210.249687 121.77728,210.163437 C120.54464,209.402187 119.12864,209 117.68,209 C113.44544,209 110,212.364688 110,216.5 C110,220.635312 113.44544,224 117.68,224" id="Page-1-Copy-9" fill="#231F20"></path>
            <g id="Page-1-Copy-8" transform="translate(304.000000, 207.000000)">
                <mask id="mask-22" fill="white">
                    <use xlink:href="#path-21"></use>
                </mask>
                <g id="Clip-2"></g>
                <path d="M18.8538734,18.0558894 L7.62596082,18.0558894 C5.34388759,18.0558894 3.4154936,16.0251075 3.4154936,13.621402 C3.4154936,11.2167523 5.34388759,9.18597044 7.62596082,9.18597044 C8.21542623,9.18597044 8.79740637,9.31531359 9.35599502,9.57116756 C9.49166563,9.63253475 9.6488564,9.62592597 9.78078438,9.55134123 C9.91084103,9.4767565 9.99785735,9.34269279 10.0137636,9.19257921 C10.2504854,7.03623063 12.0394661,5.40952809 14.1755765,5.40952809 C16.1732093,5.40952809 17.9088574,6.84268796 18.3018344,8.8168232 C18.346746,9.04152152 18.52265,9.19069099 18.7743424,9.19541154 C18.8080261,9.19446743 18.8407742,9.19069099 18.8538734,9.18597044 C21.1359466,9.18597044 23.0643406,11.2167523 23.0643406,13.621402 C23.0643406,16.0251075 21.1359466,18.0558894 18.8538734,18.0558894 M2.31235119,9.74393979 C1.78838194,9.21523787 1.3860484,8.58079555 1.12687075,7.88215372 C2.94298561,8.06436706 4.73945163,7.42426008 6.0484391,6.10344937 C7.35742658,4.78263865 7.98993232,2.97089044 7.81028572,1.13837178 C8.50267366,1.39894631 9.13237242,1.80491386 9.65634168,2.33361579 C10.5003064,3.18614765 11.0093051,4.30303048 11.1328122,5.49449804 C10.174697,6.21485442 9.46359585,7.25904073 9.18383369,8.49204916 C8.67577065,8.32588569 8.15367271,8.24185985 7.62596082,8.24185985 C5.90902585,8.24185985 4.3577026,9.17747344 3.41736492,10.5747571 C3.01877402,10.3453382 2.64170329,10.0762667 2.31235119,9.74393979 M19.1289573,8.24941273 C18.5114221,6.0354734 16.4875908,4.4654175 14.1755765,4.4654175 C13.3961722,4.4654175 12.6626153,4.65801606 11.9982971,4.97523721 C11.7821598,3.72995535 11.2142145,2.57058755 10.3178529,1.6661296 C9.50102222,0.84192106 8.46898992,0.269790044 7.33403509,0.0120478531 C7.17684432,-0.0247724598 7.01403958,0.0243212908 6.9008248,0.138558672 C6.78761001,0.253740164 6.73989139,0.418015406 6.77451078,0.576625985 C7.16935904,2.34400101 6.65100374,4.16141389 5.38692792,5.43596318 C4.12285209,6.71051248 2.32451476,7.23543796 0.571089082,6.83702329 C0.412026987,6.80020298 0.250157914,6.84835262 0.136943129,6.96353411 C0.0237283434,7.07777149 -0.0239902851,7.24299085 0.0115647714,7.40065732 C0.266999783,8.54586346 0.833073709,9.58721744 1.65084001,10.411426 C2.04194563,10.8060642 2.48919081,11.1242295 2.96357012,11.3970774 C2.65667384,12.0796694 2.47983422,12.8321255 2.47983422,13.621402 C2.47983422,16.5368155 4.8367602,19 7.62596082,19 L18.8538734,19 C21.643074,19 24,16.5368155 24,13.621402 C24,10.8013437 21.7965222,8.40519098 19.1289573,8.24941273" id="Fill-1" fill="#231F20" mask="url(#mask-22)"></path>
            </g>
            <path d="M423.555556,215.555556 L417.072889,215.555556 L421.656889,210.971556 C421.831111,210.798222 421.831111,210.516444 421.656889,210.343111 C421.483556,210.169778 421.201778,210.169778 421.028444,210.343111 L416.444444,214.927111 L416.444444,208.444444 C416.444444,208.199111 416.245333,208 416,208 C415.754667,208 415.555556,208.199111 415.555556,208.444444 L415.555556,214.927111 L410.971556,210.343111 C410.797333,210.169778 410.516444,210.169778 410.343111,210.343111 C410.168889,210.516444 410.168889,210.798222 410.343111,210.971556 L414.927111,215.555556 L408.444444,215.555556 C408.199111,215.555556 408,215.754667 408,216 C408,216.245333 408.199111,216.444444 408.444444,216.444444 L414.927111,216.444444 L410.343111,221.028444 C410.168889,221.201778 410.168889,221.483556 410.343111,221.656889 C410.429333,221.744 410.543111,221.787556 410.656889,221.787556 C410.770667,221.787556 410.884444,221.744 410.971556,221.656889 L415.555556,217.072889 L415.555556,223.555556 C415.555556,223.800889 415.754667,224 416,224 C416.245333,224 416.444444,223.800889 416.444444,223.555556 L416.444444,217.072889 L421.028444,221.656889 C421.115556,221.744 421.229333,221.787556 421.343111,221.787556 C421.456889,221.787556 421.570667,221.744 421.656889,221.656889 C421.831111,221.483556 421.831111,221.201778 421.656889,221.028444 L417.072889,216.444444 L423.555556,216.444444 C423.800889,216.444444 424,216.245333 424,216 C424,215.754667 423.800889,215.555556 423.555556,215.555556" id="Page-1-Copy-7" fill="#231F20"></path>
            <g id="Page-1-Copy-6" transform="translate(204.000000, 205.000000)" fill="#231F20">
                <path d="M16.5,3 C16.776,3 17,2.776 17,2.5 L17,0.5 C17,0.224 16.776,0 16.5,0 C16.224,0 16,0.224 16,0.5 L16,2.5 C16,2.776 16.224,3 16.5,3" id="Fill-1"></path>
                <path d="M0.926003872,16.7208976 C0.926003872,14.3665264 2.83449785,12.3768116 5.0930213,12.3768116 C5.67640374,12.3768116 6.25237815,12.5058439 6.80520246,12.7582983 C6.93947302,12.8200094 7.09596767,12.8125292 7.22560822,12.7386629 C7.35432275,12.6647966 7.44044111,12.5320243 7.45618318,12.3833567 C7.69046216,10.2477793 9.46098156,8.63674614 11.5750484,8.63674614 C13.5520667,8.63674614 15.2698039,10.056101 15.6587255,12.0112202 C15.7022477,12.230014 15.8930045,12.3861618 16.1124674,12.3861618 C16.1458035,12.3861618 16.1874737,12.3814867 16.2050678,12.3768116 C18.4635912,12.3768116 20.3720852,14.3665264 20.3720852,16.7208976 C20.3720852,19.0762038 18.4635912,21.0649836 16.2050678,21.0649836 L5.0930213,21.0649836 C2.83449785,21.0649836 0.926003872,19.0762038 0.926003872,16.7208976 L0.926003872,16.7208976 Z M16.6162135,4.93501636 C19.0747538,4.93501636 21.0739961,6.95371669 21.0739961,9.43525012 C21.0739961,10.7377279 20.5202458,11.9560542 19.5553498,12.8125292 C18.7145383,12.0345956 17.6477818,11.5175316 16.4773129,11.4502104 C15.9485647,9.55306218 14.3771361,8.13838242 12.4825322,7.78962132 C13.147403,6.09537167 14.7882818,4.93501636 16.6162135,4.93501636 L16.6162135,4.93501636 Z M16.2050678,22 C18.9654853,22 21.2980891,19.5829827 21.2980891,16.7208976 C21.2980891,15.5147265 20.8665713,14.401122 20.1804024,13.5007013 C21.3360552,12.4675082 22,11.0023375 22,9.43525012 C22,6.43758766 19.5849819,4 16.6162135,4 C14.3160199,4 12.2538092,5.51846657 11.5231922,7.70640486 C9.1581783,7.7316503 7.15337991,9.39597943 6.63481775,11.6905096 C6.13199764,11.5250117 5.61528748,11.4417952 5.0930213,11.4417952 C2.33260375,11.4417952 0,13.8597475 0,16.7208976 C0,19.5829827 2.33260375,22 5.0930213,22 L16.2050678,22 Z" id="Fill-3"></path>
                <path d="M10.2932284,4.87900135 C10.3744046,4.96021962 10.4804307,5 10.5864568,5 C10.6916546,5 10.7976807,4.96021962 10.8788569,4.87900135 C11.040381,4.71739356 11.040381,4.4546773 10.8788569,4.29306951 L9.70677159,3.12120584 C9.54524746,2.95959805 9.28349555,2.95959805 9.12114309,3.12120584 C8.95961897,3.28281363 8.95961897,3.54552989 9.12114309,3.70713768 L10.2932284,4.87900135 Z" id="Fill-5"></path>
                <path d="M22.4143715,5 C22.5203976,5 22.6264237,4.95940768 22.7075999,4.87905147 L23.8788569,3.70684478 C24.040381,3.54530392 24.040381,3.2835249 23.8788569,3.12115564 C23.7173328,2.95961479 23.4547525,2.95961479 23.2932284,3.12115564 L22.1211431,4.29253391 C21.959619,4.45490318 21.959619,4.7166822 22.1211431,4.87905147 C22.2023193,4.95940768 22.3083454,5 22.4143715,5" id="Fill-7"></path>
                <path d="M22.1211933,14.7068448 L23.2929356,15.8790515 C23.3741454,15.9594077 23.4802155,16 23.5862855,16 C23.6923555,16 23.7984255,15.9594077 23.8788067,15.8790515 C24.0403978,15.7166822 24.0403978,15.4549032 23.8788067,15.2933623 L22.7070644,14.1211556 C22.5454734,13.9596148 22.2827843,13.9596148 22.1211933,14.1211556 C21.9596022,14.2826965 21.9596022,14.5453039 22.1211933,14.7068448" id="Fill-9"></path>
            </g>
            <g id="Page-1-Copy-5" transform="translate(6.000000, 305.000000)">
                <g id="Group-3" transform="translate(2.000000, 19.000000)">
                    <mask id="mask-24" fill="white">
                        <use xlink:href="#path-23"></use>
                    </mask>
                    <g id="Clip-2"></g>
                    <path d="M2.14666909,0.235755 L0.239869091,2.29578 C0.09096,2.456655 0.09096,2.71818 0.239869091,2.879055 C0.314705455,2.959905 0.412450909,3.00033 0.509432727,3.00033 C0.607178182,3.00033 0.704923636,2.959905 0.77976,2.879055 L2.68656,0.81903 C2.83546909,0.658155 2.83546909,0.39663 2.68656,0.235755 C2.53765091,0.07488 2.29557818,0.07488 2.14666909,0.235755" id="Fill-1" fill="#231F20" mask="url(#mask-24)"></path>
                </g>
                <g id="Group-6" transform="translate(5.000000, 19.000000)">
                    <mask id="mask-26" fill="white">
                        <use xlink:href="#path-25"></use>
                    </mask>
                    <g id="Clip-5"></g>
                    <path d="M2.86222545,0.235755 L0.319825455,2.29578 C0.12128,2.456655 0.12128,2.71818 0.319825455,2.879055 C0.419607273,2.959905 0.549934545,3.00033 0.679243636,3.00033 C0.809570909,3.00033 0.939898182,2.959905 1.03968,2.879055 L3.58208,0.81903 C3.78062545,0.658155 3.78062545,0.39663 3.58208,0.235755 C3.38353455,0.07488 3.06077091,0.07488 2.86222545,0.235755" id="Fill-4" fill="#231F20" mask="url(#mask-26)"></path>
                </g>
                <g id="Group-9" transform="translate(9.000000, 19.000000)">
                    <mask id="mask-28" fill="white">
                        <use xlink:href="#path-27"></use>
                    </mask>
                    <g id="Clip-8"></g>
                    <path d="M2.86222545,0.235755 L0.319825455,2.29578 C0.12128,2.456655 0.12128,2.71818 0.319825455,2.879055 C0.419607273,2.959905 0.549934545,3.00033 0.679243636,3.00033 C0.809570909,3.00033 0.939898182,2.959905 1.03968,2.879055 L3.58208,0.81903 C3.78062545,0.658155 3.78062545,0.39663 3.58208,0.235755 C3.38353455,0.07488 3.06077091,0.07488 2.86222545,0.235755" id="Fill-7" fill="#231F20" mask="url(#mask-28)"></path>
                </g>
                <g id="Group-12" transform="translate(12.000000, 19.000000)">
                    <mask id="mask-30" fill="white">
                        <use xlink:href="#path-29"></use>
                    </mask>
                    <g id="Clip-11"></g>
                    <path d="M2.14666909,0.235755 L0.239869091,2.29578 C0.09096,2.456655 0.09096,2.71818 0.239869091,2.879055 C0.314705455,2.959905 0.412450909,3.00033 0.509432727,3.00033 C0.607178182,3.00033 0.704923636,2.959905 0.77976,2.879055 L2.68656,0.81903 C2.83546909,0.658155 2.83546909,0.39663 2.68656,0.235755 C2.53765091,0.07488 2.29557818,0.07488 2.14666909,0.235755" id="Fill-10" fill="#231F20" mask="url(#mask-30)"></path>
                </g>
                <path d="M4.86152033,8.01599832 C5.41838539,8.01599832 5.96817914,8.13856436 6.49587507,8.38101252 C6.62315852,8.44005894 6.77342369,8.4329018 6.89628757,8.36222503 C7.01915144,8.29154826 7.10135533,8.16540364 7.11726576,8.02226081 C7.34001179,5.97889696 9.03093695,4.43742764 11.0489098,4.43742764 C12.9360636,4.43742764 14.5748379,5.79549521 14.9460813,7.66529839 C14.9876252,7.87464477 15.1688273,8.02494474 15.3791986,8.02494474 C15.4136712,8.02583939 15.4516794,8.02047153 15.4684738,8.01599832 C17.6614614,8.01599832 19.4460813,9.83033365 19.4460813,12.0606778 C19.4460813,14.2901274 17.6614614,16.1053573 15.4684738,16.1053573 L4.86152033,16.1053573 C2.66764879,16.1053573 0.883912787,14.2901274 0.883912787,12.0606778 C0.883912787,9.83033365 2.66764879,8.01599832 4.86152033,8.01599832 M15.8609311,0.894642669 C18.2077195,0.894642669 20.1160872,2.82707083 20.1160872,5.20145248 C20.1160872,6.43248079 19.5989982,7.58388591 18.7000589,8.40069466 C17.89835,7.6697716 16.8712434,7.18934849 15.7274602,7.12851279 C15.222746,5.31328281 13.722746,3.95968845 11.9142605,3.62688138 C12.5489098,2.00578886 14.1160872,0.894642669 15.8609311,0.894642669 M4.86152033,17 L15.4684738,17 C18.1484973,17 20.3299941,14.7839701 20.3299941,12.0606778 C20.3299941,10.9253763 19.9348851,9.89116935 19.2984679,9.05646774 C20.3794932,8.07057152 21,6.68387538 21,5.20145248 C21,2.33322808 18.6938715,0 15.8609311,0 C13.6652917,0 11.695934,1.45289969 10.9994107,3.54725818 C8.74189747,3.57051889 6.82822628,5.16387749 6.33235121,7.35843595 C5.85327048,7.20097884 5.36004714,7.12135565 4.86152033,7.12135565 C2.18149676,7.12135565 0,9.33738554 0,12.0606778 C0,14.7839701 2.18149676,17 4.86152033,17" id="Fill-13" fill="#231F20"></path>
            </g>
            <g id="Page-1-Copy-4" transform="translate(105.000000, 304.000000)">
                <g id="Group-3">
                    <mask id="mask-32" fill="white">
                        <use xlink:href="#path-31"></use>
                    </mask>
                    <g id="Clip-2"></g>
                    <path d="M17.8253538,17.9634908 L7.20996923,17.9634908 C5.05239231,17.9634908 3.2292,15.9799222 3.2292,13.6320998 C3.2292,11.2833553 5.05239231,9.29978663 7.20996923,9.29978663 C7.76727692,9.29978663 8.31750769,9.42612271 8.84562308,9.67602839 C8.97389231,9.73596886 9.12250769,9.72951374 9.24723846,9.656663 C9.3702,9.58381227 9.45246923,9.45286538 9.46750769,9.30624176 C9.69131538,7.20002564 11.3827,5.61114194 13.4022769,5.61114194 C15.2909308,5.61114194 16.9318923,7.0109826 17.3034308,8.93922161 C17.3458923,9.15869597 17.5122,9.30439744 17.7501615,9.30900824 C17.7820077,9.30808608 17.8129692,9.30439744 17.8253538,9.29978663 C19.9829308,9.29978663 21.8061231,11.2833553 21.8061231,13.6320998 C21.8061231,15.9799222 19.9829308,17.9634908 17.8253538,17.9634908 M2.18623846,9.84478388 C1.69085385,9.32837363 1.31046923,8.70868132 1.06543077,8.02628205 C2.78246923,8.20425916 4.48093077,7.57903388 5.71850769,6.2889304 C6.95608462,4.99882692 7.55408462,3.22919963 7.38423846,1.4392848 C8.03885385,1.69380128 8.6342,2.09033059 9.12958462,2.60674084 C9.92750769,3.43945238 10.4087385,4.53036905 10.5255077,5.69413645 C9.61966154,6.39774542 8.94735385,7.41765568 8.68285385,8.62199817 C8.20250769,8.4596978 7.70889231,8.37762546 7.20996923,8.37762546 C5.5867,8.37762546 4.12000769,9.29148718 3.23096923,10.6562857 C2.85412308,10.4312784 2.49762308,10.1693846 2.18623846,9.84478388 M18.0854308,8.38500275 C17.5015846,6.2225348 15.5881615,4.68898077 13.4022769,4.68898077 C12.6653923,4.68898077 11.9718538,4.87710165 11.3437769,5.1869478 C11.1394308,3.97061722 10.6024692,2.8382033 9.75500769,1.95477289 C8.98273846,1.14972619 8.00700769,0.59089652 6.93396923,0.33914652 C6.78535385,0.303182234 6.63143077,0.351134615 6.52439231,0.462716117 C6.41735385,0.57521978 6.37223846,0.735675824 6.40496923,0.890598901 C6.77827692,2.61688462 6.2882,4.39204487 5.09308462,5.63696245 C3.89796923,6.88188004 2.19773846,7.39460165 0.539969231,7.00544963 C0.389584615,6.96948535 0.236546154,7.01651557 0.129507692,7.12901923 C0.0224692308,7.24060073 -0.0226461538,7.40197894 0.0109692308,7.55597985 C0.252469231,8.67456136 0.787661538,9.69170513 1.56081538,10.4967518 C1.93058462,10.8822152 2.35343077,11.1929835 2.80193077,11.4594881 C2.51177692,12.1262106 2.34458462,12.8611731 2.34458462,13.6320998 C2.34458462,16.4797335 4.57293077,18.885652 7.20996923,18.885652 L17.8253538,18.885652 C20.4623923,18.885652 22.6907385,16.4797335 22.6907385,13.6320998 C22.6907385,10.8776044 20.6074692,8.53715934 18.0854308,8.38500275" id="Fill-1" fill="#231F20" mask="url(#mask-32)"></path>
                </g>
                <path d="M3.73208923,22.8747229 L5.87451737,20.7321416 C6.04182754,20.5648194 6.04182754,20.2936718 5.87451737,20.1254916 C5.70720721,19.9581695 5.43522094,19.9581695 5.26791077,20.1254916 L3.12548263,22.2680729 C2.95817246,22.4353951 2.95817246,22.7074008 3.12548263,22.8747229 C3.20956671,22.958813 3.31939082,23 3.42835693,23 C3.53818104,23 3.64800515,22.958813 3.73208923,22.8747229" id="Fill-4" fill="#231F20"></path>
                <path d="M6.73208923,22.8747229 L8.87451737,20.7321416 C9.04182754,20.5648194 9.04182754,20.2936718 8.87451737,20.1254916 C8.70720721,19.9581695 8.43522094,19.9581695 8.26791077,20.1254916 L6.12548263,22.2680729 C5.95817246,22.4353951 5.95817246,22.7074008 6.12548263,22.8747229 C6.20956671,22.958813 6.31939082,23 6.42835693,23 C6.53818104,23 6.64800515,22.958813 6.73208923,22.8747229" id="Fill-6" fill="#231F20"></path>
                <path d="M9.73208923,22.8747229 L11.8745174,20.7321416 C12.0418275,20.5648194 12.0418275,20.2936718 11.8745174,20.1254916 C11.7072072,19.9581695 11.4352209,19.9581695 11.2679108,20.1254916 L9.12548263,22.2680729 C8.95817246,22.4353951 8.95817246,22.7074008 9.12548263,22.8747229 C9.20956671,22.958813 9.31939082,23 9.42835693,23 C9.53818104,23 9.64800515,22.958813 9.73208923,22.8747229" id="Fill-8" fill="#231F20"></path>
                <path d="M13.7320892,22.8747229 L15.8745174,20.7321416 C16.0418275,20.5648194 16.0418275,20.2936718 15.8745174,20.1254916 C15.7072072,19.9581695 15.4352209,19.9581695 15.2679108,20.1254916 L13.1254826,22.2680729 C12.9581725,22.4353951 12.9581725,22.7074008 13.1254826,22.8747229 C13.2095667,22.958813 13.3193908,23 13.4283569,23 C13.538181,23 13.6480051,22.958813 13.7320892,22.8747229" id="Fill-10" fill="#231F20"></path>
            </g>
            <g id="Page-1-Copy-3" transform="translate(205.000000, 307.000000)" fill="#231F20">
                <path d="M3.53125,8.52631579 C3.8245,8.52631579 4.0625,8.30162229 4.0625,8.0247678 C4.0625,4.15281734 7.39875,1.00309598 11.5,1.00309598 C15.6001875,1.00309598 18.9375,4.15281734 18.9375,8.0247678 C18.9375,8.30162229 19.1755,8.52631579 19.46875,8.52631579 C19.762,8.52631579 20,8.30162229 20,8.0247678 C20,3.60011146 16.1866875,0 11.5,0 C6.8133125,0 3,3.60011146 3,8.0247678 C3,8.30162229 3.238,8.52631579 3.53125,8.52631579" id="Fill-1"></path>
                <path d="M16.8223558,15.9973696 C17.0441401,15.8182882 17.0603682,15.5140425 16.8591395,15.3166678 C16.6589926,15.1212188 16.3160383,15.1067768 16.0953358,15.2848953 C14.6986352,16.4152261 12.8897402,17.0371969 11.0007866,17.0371969 C9.11075099,17.0371969 7.30077417,16.4142633 5.90515546,15.2829697 C5.68553484,15.1048511 5.34258048,15.1183304 5.14135173,15.3147422 C4.94012299,15.5121169 4.95526924,15.8153998 5.17705361,15.995444 C6.77173731,17.2875257 8.84028225,18 11.0007866,18 C13.1591271,18 15.2265902,17.2884885 16.8223558,15.9973696" id="Fill-3"></path>
                <path d="M0.547619048,11.3684211 L22.452381,11.3684211 C22.7546667,11.3684211 23,11.1562105 23,10.8947368 C23,10.6332632 22.7546667,10.4210526 22.452381,10.4210526 L0.547619048,10.4210526 C0.245333333,10.4210526 0,10.6332632 0,10.8947368 C0,11.1562105 0.245333333,11.3684211 0.547619048,11.3684211" id="Fill-5"></path>
                <path d="M18.4666667,12.3157895 L3.53333333,12.3157895 C3.23893333,12.3157895 3,12.528 3,12.7894737 C3,13.0509474 3.23893333,13.2631579 3.53333333,13.2631579 L18.4666667,13.2631579 C18.7610667,13.2631579 19,13.0509474 19,12.7894737 C19,12.528 18.7610667,12.3157895 18.4666667,12.3157895" id="Fill-7"></path>
            </g>
            <g id="Page-1-Copy-2" transform="translate(305.000000, 305.000000)">
                <path d="M1.95652174,9.43548387 C1.95652174,6.94354839 3.92791304,4.83870968 6.26086957,4.83870968 C6.86347826,4.83870968 7.45843478,4.97129032 8.02947826,5.23354839 C8.16913043,5.29645161 8.33078261,5.28967742 8.46373913,5.21322581 C8.59669565,5.13677419 8.68565217,5.00032258 8.70191304,4.84548387 C8.94391304,2.63516129 10.7727826,0.967741935 12.9565217,0.967741935 C14.9986957,0.967741935 16.7730435,2.43677419 17.1747826,4.46032258 C17.2197391,4.69064516 17.3842609,4.84354839 17.6568696,4.8483871 C17.6922609,4.84741935 17.7257391,4.84354839 17.7391304,4.83870968 C20.072087,4.83870968 22.0434783,6.94354839 22.0434783,9.43548387 C22.0434783,11.9274194 20.072087,14.0322581 17.7391304,14.0322581 L6.26086957,14.0322581 C3.92791304,14.0322581 1.95652174,11.9274194 1.95652174,9.43548387 M23,9.43548387 C23,6.51870968 20.7473913,4.03935484 18.0193913,3.87870968 C17.388087,1.60935484 15.3191304,0 12.9565217,0 C10.4896522,0 8.39391304,1.73612903 7.85347826,4.12741935 C7.33408696,3.95709677 6.80034783,3.87096774 6.26086957,3.87096774 C3.40947826,3.87096774 1,6.41903226 1,9.43548387 C1,12.4519355 3.40947826,15 6.26086957,15 L17.7391304,15 C20.5905217,15 23,12.4519355 23,9.43548387" id="Fill-1" fill="#231F20"></path>
                <path d="M4.87451737,16.1254557 C4.70720721,15.9581814 4.43522094,15.9581814 4.26791077,16.1254557 L2.12548263,18.2674244 C1.95817246,18.4346987 1.95817246,18.7066266 2.12548263,18.8739009 C2.20956671,18.957967 2.31853282,19 2.42835693,19 C2.53818104,19 2.64800515,18.957967 2.73208923,18.8739009 L4.87451737,16.7319322 C5.04182754,16.5646579 5.04182754,16.29273 4.87451737,16.1254557" id="Fill-3" fill="#231F20"></path>
                <path d="M8.87451737,16.1254557 C8.70720721,15.9581814 8.43522094,15.9581814 8.26791077,16.1254557 L6.12548263,18.2674244 C5.95817246,18.4346987 5.95817246,18.7066266 6.12548263,18.8739009 C6.20956671,18.957967 6.31853282,19 6.42835693,19 C6.53818104,19 6.64800515,18.957967 6.73208923,18.8739009 L8.87451737,16.7319322 C9.04182754,16.5646579 9.04182754,16.29273 8.87451737,16.1254557" id="Fill-5" fill="#231F20"></path>
                <path d="M12.8745174,16.1254557 C12.7072072,15.9581814 12.4352209,15.9581814 12.2679108,16.1254557 L10.1254826,18.2674244 C9.95817246,18.4346987 9.95817246,18.7066266 10.1254826,18.8739009 C10.2095667,18.957967 10.3185328,19 10.4283569,19 C10.538181,19 10.6480051,18.957967 10.7320892,18.8739009 L12.8745174,16.7319322 C13.0418275,16.5646579 13.0418275,16.29273 12.8745174,16.1254557" id="Fill-7" fill="#231F20"></path>
                <path d="M16.2679108,16.1254557 L14.1254826,18.2674244 C13.9581725,18.4346987 13.9581725,18.7066266 14.1254826,18.8739009 C14.2095667,18.957967 14.3193908,19 14.4283569,19 C14.538181,19 14.6480051,18.957967 14.7320892,18.8739009 L16.8745174,16.7319322 C17.0418275,16.5646579 17.0418275,16.29273 16.8745174,16.1254557 C16.7072072,15.9581814 16.4352209,15.9581814 16.2679108,16.1254557" id="Fill-9" fill="#231F20"></path>
                <g id="Group-13" transform="translate(11.000000, 20.000000)">
                    <mask id="mask-34" fill="white">
                        <use xlink:href="#path-33"></use>
                    </mask>
                    <g id="Clip-12"></g>
                    <path d="M0.982714286,0.125571429 L0.125571429,0.982714286 C-0.0415714286,1.14985714 -0.0415714286,1.42157143 0.125571429,1.58871429 C0.209571429,1.67271429 0.319285714,1.71471429 0.429,1.71471429 C0.537857143,1.71471429 0.647571429,1.67271429 0.731571429,1.58871429 L1.58871429,0.731571429 C1.75585714,0.564428571 1.75585714,0.292714286 1.58871429,0.125571429 C1.42157143,-0.0415714286 1.14985714,-0.0415714286 0.982714286,0.125571429" id="Fill-11" fill="#231F20" mask="url(#mask-34)"></path>
                </g>
                <g id="Group-16" transform="translate(7.000000, 20.000000)">
                    <mask id="mask-36" fill="white">
                        <use xlink:href="#path-35"></use>
                    </mask>
                    <g id="Clip-15"></g>
                    <path d="M0.982714286,0.125571429 L0.125571429,0.982714286 C-0.0415714286,1.14985714 -0.0415714286,1.42157143 0.125571429,1.58871429 C0.209571429,1.67271429 0.319285714,1.71471429 0.429,1.71471429 C0.537857143,1.71471429 0.647571429,1.67271429 0.731571429,1.58871429 L1.58871429,0.731571429 C1.75585714,0.564428571 1.75585714,0.292714286 1.58871429,0.125571429 C1.42157143,-0.0415714286 1.14985714,-0.0415714286 0.982714286,0.125571429" id="Fill-14" fill="#231F20" mask="url(#mask-36)"></path>
                </g>
                <g id="Group-19" transform="translate(4.000000, 20.000000)">
                    <mask id="mask-38" fill="white">
                        <use xlink:href="#path-37"></use>
                    </mask>
                    <g id="Clip-18"></g>
                    <path d="M0.982714286,0.125571429 L0.125571429,0.982714286 C-0.0415714286,1.14985714 -0.0415714286,1.42157143 0.125571429,1.58871429 C0.209571429,1.67271429 0.319285714,1.71471429 0.429,1.71471429 C0.537857143,1.71471429 0.647571429,1.67271429 0.731571429,1.58871429 L1.58871429,0.731571429 C1.75585714,0.564428571 1.75585714,0.292714286 1.58871429,0.125571429 C1.42157143,-0.0415714286 1.14985714,-0.0415714286 0.982714286,0.125571429" id="Fill-17" fill="#231F20" mask="url(#mask-38)"></path>
                </g>
                <g id="Group-22" transform="translate(0.000000, 20.000000)">
                    <mask id="mask-40" fill="white">
                        <use xlink:href="#path-39"></use>
                    </mask>
                    <g id="Clip-21"></g>
                    <path d="M0.982714286,0.125571429 L0.125571429,0.982714286 C-0.0415714286,1.14985714 -0.0415714286,1.42157143 0.125571429,1.58871429 C0.209571429,1.67271429 0.319285714,1.71471429 0.429,1.71471429 C0.537857143,1.71471429 0.647571429,1.67271429 0.731571429,1.58871429 L1.58871429,0.731571429 C1.75585714,0.564428571 1.75585714,0.292714286 1.58871429,0.125571429 C1.42157143,-0.0415714286 1.14985714,-0.0415714286 0.982714286,0.125571429" id="Fill-20" fill="#231F20" mask="url(#mask-40)"></path>
                </g>
            </g>
            <g id="Page-1-Copy" transform="translate(405.000000, 305.000000)" fill="#231F20">
                <path d="M5.26086957,4.92307692 C5.86347826,4.92307692 6.45843478,5.05796923 7.03043478,5.3248 C7.16913043,5.39076923 7.32982609,5.38190769 7.46469565,5.30412308 C7.59669565,5.22535385 7.68565217,5.08652308 7.70286957,4.92996923 C7.94391304,2.68110769 9.77182609,0.984615385 11.9565217,0.984615385 C13.9986957,0.984615385 15.772087,2.47926154 16.1747826,4.53809231 C16.2206957,4.77243077 16.4349565,4.93095385 16.6578261,4.93292308 C16.6922609,4.93193846 16.7257391,4.928 16.7391304,4.92307692 C19.1629565,4.92307692 21.0434783,7.63569231 21.0434783,9.96923077 C21.0434783,12.3027692 19.1629565,15.0153846 16.7391304,15.0153846 L5.26086957,15.0153846 C2.83704348,15.0153846 0.956521739,12.3027692 0.956521739,9.96923077 C0.956521739,7.63569231 2.83704348,4.92307692 5.26086957,4.92307692 M5.26086957,16 L16.7391304,16 C19.7493043,16 22,12.8157538 22,9.96923077 C22,7.21132308 19.8889565,4.13833846 17.0203478,3.94732308 C16.3890435,1.63741538 14.320087,0 11.9565217,0 C9.48965217,0 7.39295652,1.7664 6.85347826,4.19938462 C6.33408696,4.02609231 5.80034783,3.93846154 5.26086957,3.93846154 C2.24973913,3.93846154 0,7.12270769 0,9.96923077 C0,12.8157538 2.24973913,16 5.26086957,16" id="Fill-1"></path>
                <path d="M6,17.5 L6,21.5 C6,21.776 6.224,22 6.5,22 C6.776,22 7,21.776 7,21.5 L7,17.5 C7,17.224 6.776,17 6.5,17 C6.224,17 6,17.224 6,17.5" id="Fill-3"></path>
                <path d="M12,17.5 L12,21.5 C12,21.776 12.224,22 12.5,22 C12.776,22 13,21.776 13,21.5 L13,17.5 C13,17.224 12.776,17 12.5,17 C12.224,17 12,17.224 12,17.5" id="Fill-5"></path>
                <path d="M9,17.5 L9,19.5 C9,19.776 9.224,20 9.5,20 C9.776,20 10,19.776 10,19.5 L10,17.5 C10,17.224 9.776,17 9.5,17 C9.224,17 9,17.224 9,17.5" id="Fill-7"></path>
                <path d="M15,17.5 L15,19.5 C15,19.776 15.224,20 15.5,20 C15.776,20 16,19.776 16,19.5 L16,17.5 C16,17.224 15.776,17 15.5,17 C15.224,17 15,17.224 15,17.5" id="Fill-9"></path>
            </g>
        </g>
    </g>
</svg>